<svg height="912.96" viewBox="0 0 1379.52 684.72" width="1839.36" xmlns="http://www.w3.org/2000/svg" xmlns:xlink="http://www.w3.org/1999/xlink"><defs><style>*{stroke-linecap:butt;stroke-linejoin:round}</style></defs><g id="figure_1"><path d="M0 684.72h1379.52V0H0z" fill="#fff" id="patch_1"/><g id="axes_1"><path d="M172.44 609.4h1069.128V82.167H172.44z" fill="#fff" id="patch_2"/><g id="matplotlib.axis_1"><g id="xtick_1"><g id="line2d_1"><defs><path d="M0 0v3.5" id="m35e475f377" stroke="#000" stroke-width=".8"/></defs><use x="221.037" xlink:href="#m35e475f377" y="609.401" stroke="#000" stroke-width=".8"/></g><g id="text_1"><defs><path d="M31.781 66.406q-7.61 0-11.453-7.5Q16.5 51.422 16.5 36.375q0-14.984 3.828-22.484 3.844-7.5 11.453-7.5 7.672 0 11.5 7.5 3.844 7.5 3.844 22.484 0 15.047-3.844 22.531-3.828 7.5-11.5 7.5zm0 7.813q12.266 0 18.735-9.703 6.468-9.688 6.468-28.141 0-18.406-6.468-28.11-6.47-9.687-18.735-9.687-12.25 0-18.718 9.688-6.47 9.703-6.47 28.109 0 18.453 6.47 28.14Q19.53 74.22 31.78 74.22z" id="DejaVuSans-48"/></defs><use xlink:href="#DejaVuSans-48" transform="matrix(.1 0 0 -.1 217.855 624)"/></g></g><g id="xtick_2"><use x="415.424" xlink:href="#m35e475f377" y="609.401" stroke="#000" stroke-width=".8" id="line2d_2"/><g id="text_2"><defs><path d="M19.188 8.297h34.421V0H7.33v8.297q5.609 5.812 15.296 15.594 9.703 9.797 12.188 12.64 4.734 5.313 6.609 9 1.89 3.688 1.89 7.25 0 5.813-4.078 9.469-4.078 3.672-10.625 3.672-4.64 0-9.797-1.61-5.14-1.609-11-4.89v9.969Q13.767 71.78 18.938 73q5.188 1.219 9.485 1.219 11.328 0 18.062-5.672 6.735-5.656 6.735-15.125 0-4.5-1.688-8.531-1.672-4.016-6.125-9.485-1.218-1.422-7.765-8.187-6.532-6.766-18.453-18.922z" id="DejaVuSans-50"/></defs><g transform="matrix(.1 0 0 -.1 405.88 624)"><use xlink:href="#DejaVuSans-50"/><use x="63.623" xlink:href="#DejaVuSans-48"/><use x="127.246" xlink:href="#DejaVuSans-48"/></g></g></g><g id="xtick_3"><use x="609.811" xlink:href="#m35e475f377" y="609.401" stroke="#000" stroke-width=".8" id="line2d_3"/><g id="text_3"><defs><path d="M37.797 64.313L12.89 25.39h24.906zm-2.594 8.593H47.61V25.391h10.407v-8.203H47.609V0h-9.812v17.188H4.89v9.515z" id="DejaVuSans-52"/></defs><g transform="matrix(.1 0 0 -.1 600.267 624)"><use xlink:href="#DejaVuSans-52"/><use x="63.623" xlink:href="#DejaVuSans-48"/><use x="127.246" xlink:href="#DejaVuSans-48"/></g></g></g><g id="xtick_4"><use x="804.197" xlink:href="#m35e475f377" y="609.401" stroke="#000" stroke-width=".8" id="line2d_4"/><g id="text_4"><defs><path d="M33.016 40.375q-6.641 0-10.532-4.547-3.875-4.531-3.875-12.437 0-7.86 3.875-12.438 3.891-4.562 10.532-4.562 6.64 0 10.515 4.562 3.875 4.578 3.875 12.438 0 7.906-3.875 12.437-3.875 4.547-10.515 4.547zm19.578 30.922v-8.984q-3.719 1.75-7.5 2.671-3.782.938-7.5.938-9.766 0-14.922-6.594-5.14-6.594-5.875-19.922 2.875 4.25 7.219 6.516 4.359 2.266 9.578 2.266 10.984 0 17.36-6.672 6.374-6.657 6.374-18.125 0-11.235-6.64-18.032-6.641-6.78-17.672-6.78-12.657 0-19.344 9.687-6.688 9.703-6.688 28.109 0 17.281 8.204 27.563 8.203 10.28 22.015 10.28 3.719 0 7.5-.734t7.89-2.187z" id="DejaVuSans-54"/></defs><g transform="matrix(.1 0 0 -.1 794.654 624)"><use xlink:href="#DejaVuSans-54"/><use x="63.623" xlink:href="#DejaVuSans-48"/><use x="127.246" xlink:href="#DejaVuSans-48"/></g></g></g><g id="xtick_5"><use x="998.584" xlink:href="#m35e475f377" y="609.401" stroke="#000" stroke-width=".8" id="line2d_5"/><g id="text_5"><defs><path d="M31.781 34.625q-7.031 0-11.062-3.766-4.016-3.765-4.016-10.343 0-6.594 4.016-10.36Q24.75 6.391 31.78 6.391q7.032 0 11.078 3.78 4.063 3.798 4.063 10.345 0 6.578-4.031 10.343-4.016 3.766-11.11 3.766zm-9.86 4.188q-6.343 1.562-9.89 5.906Q8.5 49.079 8.5 55.329q0 8.733 6.219 13.812 6.234 5.078 17.062 5.078 10.89 0 17.094-5.078 6.203-5.079 6.203-13.813 0-6.25-3.547-10.61-3.531-4.343-9.828-5.906 7.125-1.656 11.094-6.5 3.984-4.828 3.984-11.796 0-10.61-6.468-16.282-6.47-5.656-18.532-5.656-12.047 0-18.531 5.656-6.469 5.672-6.469 16.282 0 6.968 4 11.797 4.016 4.843 11.14 6.5zM18.314 54.39q0-5.657 3.53-8.828 3.548-3.172 9.938-3.172 6.36 0 9.938 3.172 3.593 3.171 3.593 8.828 0 5.672-3.593 8.843-3.578 3.172-9.938 3.172-6.39 0-9.937-3.172-3.532-3.172-3.532-8.843z" id="DejaVuSans-56"/></defs><g transform="matrix(.1 0 0 -.1 989.04 624)"><use xlink:href="#DejaVuSans-56"/><use x="63.623" xlink:href="#DejaVuSans-48"/><use x="127.246" xlink:href="#DejaVuSans-48"/></g></g></g><g id="xtick_6"><use x="1192.971" xlink:href="#m35e475f377" y="609.401" stroke="#000" stroke-width=".8" id="line2d_6"/><g id="text_6"><defs><path d="M12.406 8.297h16.11v55.625l-17.532-3.516v8.985l17.438 3.515h9.86V8.296H54.39V0H12.406z" id="DejaVuSans-49"/></defs><g transform="matrix(.1 0 0 -.1 1180.246 624)"><use xlink:href="#DejaVuSans-49"/><use x="63.623" xlink:href="#DejaVuSans-48"/><use x="127.246" xlink:href="#DejaVuSans-48"/><use x="190.869" xlink:href="#DejaVuSans-48"/></g></g></g><g id="text_7"><defs><path d="M18.313 70.219V54.688h18.5v-6.985h-18.5V18.016q0-6.688 1.828-8.594 1.828-1.906 7.453-1.906h9.218V0h-9.218q-10.407 0-14.36 3.875-3.953 3.89-3.953 14.14v29.688H2.687v6.984h6.594V70.22z" id="DejaVuSans-116"/></defs><use xlink:href="#DejaVuSans-116" transform="matrix(.1 0 0 -.1 705.044 637.677)"/></g></g><g id="matplotlib.axis_2"><g id="ytick_1"><g id="line2d_7"><defs><path d="M0 0h-3.5" id="m54a2f9f75c" stroke="#000" stroke-width=".8"/></defs><use x="172.44" xlink:href="#m54a2f9f75c" y="548.39" stroke="#000" stroke-width=".8"/></g><use xlink:href="#DejaVuSans-48" transform="matrix(.1 0 0 -.1 159.077 552.19)" id="text_8"/></g><g id="ytick_2"><use x="172.44" xlink:href="#m54a2f9f75c" y="437.24" stroke="#000" stroke-width=".8" id="line2d_8"/><g transform="matrix(.1 0 0 -.1 146.352 441.04)" id="text_9"><use xlink:href="#DejaVuSans-49"/><use x="63.623" xlink:href="#DejaVuSans-48"/><use x="127.246" xlink:href="#DejaVuSans-48"/></g></g><g id="ytick_3"><use x="172.44" xlink:href="#m54a2f9f75c" y="326.091" stroke="#000" stroke-width=".8" id="line2d_9"/><g transform="matrix(.1 0 0 -.1 146.352 329.89)" id="text_10"><use xlink:href="#DejaVuSans-50"/><use x="63.623" xlink:href="#DejaVuSans-48"/><use x="127.246" xlink:href="#DejaVuSans-48"/></g></g><g id="ytick_4"><use x="172.44" xlink:href="#m54a2f9f75c" y="214.941" stroke="#000" stroke-width=".8" id="line2d_10"/><g id="text_11"><defs><path d="M40.578 39.313Q47.656 37.797 51.625 33q3.984-4.781 3.984-11.813 0-10.78-7.422-16.703-7.421-5.906-21.093-5.906-4.578 0-9.438.906-4.86.907-10.031 2.72v9.515q4.094-2.39 8.969-3.61 4.89-1.218 10.218-1.218 9.266 0 14.125 3.656 4.86 3.656 4.86 10.64 0 6.454-4.516 10.079-4.515 3.64-12.562 3.64h-8.5v8.11h8.89q7.266 0 11.125 2.906 3.86 2.906 3.86 8.375 0 5.61-3.985 8.61-3.968 3.015-11.39 3.015-4.063 0-8.703-.89-4.641-.876-10.203-2.72v8.782q5.624 1.562 10.53 2.344 4.907.78 9.25.78 11.235 0 17.766-5.109 6.547-5.093 6.547-13.78 0-6.063-3.468-10.235-3.47-4.172-9.86-5.782z" id="DejaVuSans-51"/></defs><g transform="matrix(.1 0 0 -.1 146.352 218.74)"><use xlink:href="#DejaVuSans-51"/><use x="63.623" xlink:href="#DejaVuSans-48"/><use x="127.246" xlink:href="#DejaVuSans-48"/></g></g></g><g id="ytick_5"><use x="172.44" xlink:href="#m54a2f9f75c" y="103.791" stroke="#000" stroke-width=".8" id="line2d_11"/><g transform="matrix(.1 0 0 -.1 146.352 107.59)" id="text_12"><use xlink:href="#DejaVuSans-52"/><use x="63.623" xlink:href="#DejaVuSans-48"/><use x="127.246" xlink:href="#DejaVuSans-48"/></g></g><g id="text_13"><defs><path d="M45.516 34.672H14.453q-2.094-14.61.047-20.797 2.688-7.625 9.969-7.625 7.312 0 12.89 7.672 4.875 6.734 8.157 20.75zm1.5 8.297q1.328 13.875-.391 18.75-2.672 7.718-9.86 7.718-7.468 0-12.937-7.624-4.297-6.141-7.672-18.844zm-8.828 33.797q11.718 0 16.406-10.36 4.687-10.297 1.125-28.562Q52.203 19.625 43.453 9.28 34.766-1.125 23.047-1.125 11.28-1.125 6.64 9.281 2 19.625 5.516 37.844q3.562 18.265 12.203 28.562 8.703 10.36 20.468 10.36z" id="DejaVuSans-Oblique-952"/></defs><g transform="matrix(0 -.1 -.1 0 140.273 351.234)"><use transform="translate(0 .234)" xlink:href="#DejaVuSans-Oblique-952"/><use transform="matrix(.7 0 0 .7 61.182 -16.172)" xlink:href="#DejaVuSans-50"/></g></g></g><path clip-path="url(#pfe4d6abdaa)" d="M221.037 546.644l.139.112.186.51.27 1.516.247 1.08.024-.016.084-.293.477-2.166.321-.263.192.134.261.181.022-.025.117-.373.067-.104.053.09.126.754.605 4.167.491 1.17.408 1.94.346 2.052.033-.012.31-.041.19-.116.202-.454.407-1.247.063.106.112.74.093.28.049-.075.132-.716 1.07-8.426.856-7.095.083.24.235.895.023-.01.149-.216.605-1.35.088.196.124.981.241 1.649.531 2.044.418 1.206.223 1.81.29 2.102.039-.016.03-.07.145-.276.05.043.253.53.244.225.149-.146.191-.566.28-1.697.311-1.214.257-.274.23-.223.167-.708.287-.977.142.112.343.243.326.067.129.556.26 2.445.845 8.235.499 2.15.067-.061.01-.026.12-.672.279-3.144.515-4.746.37-2.238.4-1.355.061.09.123.66.246 2.77.323 2.585.246.555.316.591.263 1.102.55 3.124.095-.243.24-1.699.367-1.803.307-.978.034.027.097.335.204 1.753.573 5.066.657 2.766.5 2.79.024-.015.1-.288.176-1.297.763-5.11.11.128.735 1.642.21.922.495 2.375 1.122 4.788.583 4.178.666 3.268.092-.063.069.13.146.93.43 2.802.556 2.479.556 3.277.03-.028.093-.387.463-3.677.247-1.246.08-.036.048.04.099.01.029-.042.168-.521.343-1.872.344-1.452.03.03.087.408.084.236.054-.088.145-.798.85-6.815.262-2.111.872-4.959.088.27.103.33.052-.084.148-.767.88-6.654.248-1.977.855-5.102.05.093.138.479.07-.142.185-1.088 1.935-13.253.017.01.072.253.095.275.052-.085.148-.78.87-6.692.248-1.92.917-4.724.094.249.069.135.054-.098.144-.845 1.22-8.91.019.011.083.26.242 1.767.349 1.85.397 1.189.045-.047.109-.437.214-2.025.345-3.226.2-.374.61-.217.13.058.117.442.225 1.993.962 8.883.285.86.194.077.183-.218.252-.267.028.025.118.108.045-.081.124-.688.477-2.96.152.08.362.463.25.856.346 1.358.049-.074.1-.642.109-.386.043.055.125.577.73 3.81.17.165.166.837.65 4.74.073-.13.125-.796.518-3.996.72-5.475.052.1.157.506.066-.087.226-.774.322-.744.168.009.183.314.371.862.06-.094.108-.226.054.1.132.825.539 3.75.519 1.865.626 3.61.072-.155.16-1.15.59-4.202.302-1.114.39-3.34.268-1.587.016.007.081.215.15 1.153 1.198 8.853.023-.019.092-.363.077-.131.053.068.175.653.63 2.285.101.068.04-.049.107-.456.259-2.444 1.563-15.85.218-1.134.015.007.083.207.167 1.157.643 5.002.598 5.113.078-.182.403-1.346.629-1.363.203-.871.072.158.153 1.107 1.068 8.91.31 1.304.065-.109.127-.786.427-4.626.81-6.765.063-.028.05.056.16.091.025-.022.673-.534.126-.178.143-.722.287-2.983.338-3.538.303-1.452.439-1.775.295-1.089.022.014.081.253.26 1.498.096-.18.275-1.3.744-4.14.712-5.904.17.071.262.041.345-.046.124.508.248 2.286.729 6.885.592 3.298.315 1.798.317 3.362.237 1.298.007-.002.068-.16.353-1.02.303-.522.418-1.173.167-.796.042.06.111.598.358 3.623 1.57 12.99.036-.043.088-.492.222-1.006.166-.01.45.111.121-.413.2-1.12.071.155.17 1.167 1.438 12.525.432 3.631.063-.084.003-.009.12-.754.251-.993.641-1.691.171.136.312.362.045-.063.136-.284.06.121.138.896.476 3.38.319.367.349.657.142.107.03-.03.196-.282.063.115.156.775.668 4.74.059-.084.12-.654 1.238-9.885.035.016.029.073.19.64.074-.09.604-1.046.04.027.202.316.35 1.015.276 1.73.099-.24.281-1.783.311-1.157.204-.136.152.186.306.844.128.173.04-.048.155-.453.078.206.17 1.332.44 3.544.95 4.647.151-.056.195-.387.304-.66.04.047.16.469.08-.22.174-1.389.419-3.41.984-4.8.145.062.175.397.256 1.233.254 1.019.026-.02.082-.302.247-1.378.066.083.18.681.666 3.578.579 6.402 1.366 14.086.182.509.01-.003.123-.162.832-1.863 1.453-6.517.268-1.65.303-2.384.864-4.407.16-.084.088-.27.191-1.51.302-1.705.898-3.266.164-1.586.212-.984.534-.645.169.104.269.52.28.871.61 3.06.29.367.184-.083.326-.162.102-.007.022-.04.122-.538.533-4.463.682-4.496.05.087.111.285.058-.102.165-.863.924-6.935.26-1.504.903-4.102.111.114.066-.122.142-.907.448-3 .569-2.42.564-3.3.033.035.096.429.87 5.088.137.425.218 1.458.465 2.87.037-.01.032-.076.101-.733.183-.678.099.105.26.77.394 1.198.054-.077.112-.597.42-2.75.364-1.194.488-1.226.234-1.997.334-2.785.042-.012.044.08.486 1.09.312.72.314.981.177.86.045-.068.115-.645.46-4.54 1.433-12.087.036-.01.043.088.109.783.197.717.198.05.396.062.127.381.198 1.032.072-.167.169-1.214 1.8-15.694.09.263.312 1.236.201-.071.33-.071.12.314.233 1.32.1-.3.304-2.294.463-3.03.228-1.595.637-6.545.558-4.772.016.005.104.188.235 1.028.578 2.754.088-.244.218-1.154.072.108.197.854.356 1.185.217.135.44-.18.125-.568.536-3.135.344-.748.39-.584.184-1.242.656-5.42.057.038.18.384.543 1.806.195.482.033-.034.149-.396.075.203.172 1.325.44 3.465.973 5.136.107.16.043-.05.11-.471.21-2.1.295-2.643.198-.379.196.106.246.026.318-.03.128.432.207 1.696.4 3.29.057-.023.027-.053.337-1.119.25-1.038.53-2.557.388-1.225.255-2.143.395-3.31.053.033.022.052.512 1.796.527 1.753.187-.004.33-.12.017.032.111.142.048-.075.12-.634.498-3.165.021.007.193.218.313.557.246 1.028.35 1.74.053-.08.1-.637.212-1.101.107.064.287.662.234.334.02-.014.097-.24.136-1.095.11-.344.043.055.119.575.681 3.789.06.024.043-.071.116-.608.455-4.347.305-1.912.266-1.995.466-4.512.295-1.554.635-1.818.274-.913.025.018.085.29.207 1.174.074-.14.195-1.093.396-1.737.328-.84.022.012.093.238.169 1.23.635 4.965.242.028.208.157.295.263.03-.035.113-.391.234-1.874.574-4.45.113-.209.043.05.622 1.008.201.482.247 1.267.688 5.37.478 3.116.413 1.315.048-.057.112-.49.22-2.217.312-2.941.22-.565.528-.513.232-.249.02.016.158.11.042-.077.135-.656.5-4.586.805-7.323.087.118.164.723.713 3.865.075-.162.116-.94.23-1.294.5-1.528.183-.018.19.273.374 1.015.141 1.212.2 1.12.151.031.536-.278.403-.81.067.124.166.659.08-.201.178-1.369.814-7.087.339-2.03.07.138.164 1.032.475 2.893.367 1.204.05-.06.112-.505.231-2.347.323-3.16.258-.902.4-.966.271-1.532.35-1.513.26-1.07.072.144.145.995 1.146 9.472.249.433.142-.074.179-.425.27-1.327.218-.775.026.022.083.32.225 1.254.06-.08.162-.678.44-1.682.471-1.192.301-2.437.546-4.088.157-.434.03.027.094.364.279 2.413.544 3.513.185.721.234 1.918.435 2.851.038-.043.095-.468.39-2.284.373-1.336.227-.166.372-.079.157-.252.049.068.126.58.461 4.068.801 7.238h.005l.072-.145.394-1.884.776-3.052.205-.6.216-1.57.557-4.717.057.058.136.493.634 3.64.91 6.938.327 1.304.054-.07.113-.592.272-2.953.415-4.316.52-4.3.119-.238.043.04.266.263.023-.017.354-.136.198.268.436 1.058.143 1.376.235 1.408.524 1.752.41 1.134.216 1.702.279 1.864.073-.094.095-.115.05.056.195.567.42 1.004.366.377.012-.009.11-.25.169-1.092.435-3.426.049.056.763 1.924.625 2.051.006-.003.072-.176.159-1.171.764-6.31.641-4.247.381-3.965.324-3.343.223-.767.26-.08.205-.225.499-1.087.145-1.085.268-2.043.59-2.783 1.52-6.313.653-2.223.504-4.349.623-4.304.071.18.114.35.054-.08.16-.725 1.171-7.174.869-7.138.087.277.172.626.034-.021.14-.314.442-.96.491-.3.029.053.118.57.61 3.917.76 3.422.256 1.152.13.28.229 1.345.5 2.533.457 3.105.23 1.436.058-.014.033-.052.922-1.533.083.161.167.693.076-.185.174-1.302 1.028-9.002.12-.285.043.05.129.552.888 5.561.836 6.096.076.087.048-.074.114-.635.945-8.547.515-5.548 1.104-10.087.272-.613h.176l.286.357.127-.006.013-.014.088-.043.04.064.118.588.479 2.907.025-.008.373-.313.215-.48.236-1.148.383-2.167.045.055.104.522.513 3.374.377 1.3.321 1.179.232 1.965.246 1.393.078-.119.068-.052.049.065.179.628.701 2.498.09-.104.166-.276.05.06.157.544.375 2.355.289 1.384.034-.04.083-.451.163-.741.029.02.109.32.535 1.78.153-.034.167-.346.218-1.042.848-6.368.282-2.176.039-.023.046.096.199.586.061-.052.673-.72.303.158.13.726.295 1.8.387.323.171-.073.192-.394.4-1.132.066.124.187.87.094-.273.237-1.81.974-8.425.778-5.418.044.069.114.724.1.217.046-.046.149-.482.401-1.187.172-.018.164.278.218.889.418 1.63.256 1.044.082-.193.162-1.215.945-8.104.357-1.638.472-1.653.291-2.853.333-3.244.133-.26.033.021.129.292.47 1.92.329 1.476.045-.062.09-.558.15-.667.028.021.104.334.573 2.148.203.062.424-.277.129-.496.563-2.685.32-.575.247-.166.182.148.601 1.038.196 1.533.251 1.231.292.184.254.066.172-.235.23-.762.364-1.474.056.092.105.74.112.379.041-.05.125-.546.695-3.442.058-.004.037.065.12.627.476 4.466.276 1.626.276 1.598.62 4.849.078-.12.143-.746.764-5.11.076.106.149.714.68 4.444.038-.042.102-.463.824-5.3.35-2.216.26-1.182.132-.115.153-.851.541-3.214.399-2.594.403-2.412.092.239.211 1.602.513 3.267.095.138.046-.064.114-.572.793-5.514.067.05.106.013.028-.038.181-.512.473-2.122.237-.681.026.02.12.181.056-.125.144-.958.455-3.202.565-2.51.57-3.222.04-.003.038.079.122.745.851 8.203.347 3.605.688 5.987.012-.004.077-.184.225-1.404.353-2.176.45-2.502.293-2.213.244-1.263.006.002.157.067.035-.103.196-1.115 1.173-7.642.372-.893.409-.678.184-.55.206-1.492.34-2.5.01.004.077.182.12.173.04-.029.244-.416.234-.164.155.166.2.607.736 2.924.041-.051.106-.521.238-2.548.355-3.3.622-4.047.259-.4.22.024.21-.05.098.088.127.585.433 2.714.063-.033.168.026.314.103.17-.25.21-.776.299-2.174.535-5.18.307-2.993.137-.32.034.023.124.312.466 2.174.326 1.642.045-.06.092-.544.219-1.085.096.096.25.743.336.893.034-.03.098-.357.341-1.859.067.043.607.435.104-.243.174-.728.07.161.16 1.16 1.007 8.474.268 1.322.042-.052.105-.531.335-3.396.413-3.82.432-4.576.72-6.929.063-.056.051.072.131.581.808 6.1.744 5.98.144.043.11.084.2.624.677 2.786.1-.207.05-.05.05.094.133.806.585 4.016.373 2.072.369 1.917.356 1.247.084-.181.155-1.095.677-5.307.435-1.183.873-3.98.078.156.146.995.762 5.919.354 1.44.5 3.513.41 4.315.385 4.347.592 5.195.186.307.122.103.22.679.678 2.547.092-.076.07.098.13.77.46 2.942.973 2.513.164 1.667.43 2.882.683 3.664.076-.098.045-.017.044.082.133.75.615 3.958.359 2.366.51 2.6.068-.097.124-.772.571-5.908.768-7.283.546-4.494.076.156.14 1.007.488 2.697.34 1.162.34 1.08.24 1.883.355 2.78.063-.109.272-.571.005.001.513.048.236-.222.134-.636.237-1.456.044.047.128.514.682 3.073.242 1.157.306 2.968.355 3.472.134.243.032-.02.138-.281.456-1.663.336-1.258.042.059.111.61.068.14.055-.096.148-.847.854-6.972.255-2.087.81-5.307.046.076.177.732.095-.207.382-1.879.432-1.54.078.108.13.734 1.934 14.832.321.897.36 1.138.04-.04.091-.402.163-.864.049.07.13.677.704 4.04.164.406.177 1.263.57 5.178.315 1.595.671 1.854.055-.075.098-.531.135-.621.04.051.113.563.918 7.033.332 3.208.69 5.714.06-.096.322-1.144.093.064.504.577.072-.146.117-.756.212-1.172h.003l.078.132.215.992.669 4.113 1.41 13.086.216.895.388 2.784.228 1.039.03-.03.08-.408.168-.752.029.019.112.31.527 1.644.162-.029.183-.333.408-1.406.277-1.667.104.31.396 2.849.363 1.858.081-.095.204-.331.042.035.235.44.367.487.194.346.178.928.427 3.25.092-.194.119-.15.039.027.53.458.04-.046.187-.45.612-2.548.145-.533.035.036.098.443.241 2.426.382 3.874.575 4.8.105.165.045-.042.21-.158.022.018.455.259.38-.174.019.03.162.238.054-.084.136-.657.527-4.755 1.453-14.161.501-1.12.602-2.428.058.08.08.11.05-.088.129-.765.54-3.607.455-1.91.64-3.615.028.027.09.38.309 2.768.44 3.828.36 3.602.886 8.254.08-.136.148-.834.836-6.414.534-4.641.058.08.126.645.695 3.733.722 3.83.29 2.02.05-.05.015-.043.115-.219.053.062.19.599.446 1.196.33.429.016-.012.105-.244.169-1.113.492-3.953.052.051.146.502.588 2.642.478 2.794.3 2.306.276 1.838.042-.032.022-.058.11-.222.054.074.176.677.696 2.689.101-.097.105-.085.042.054.141.525.319 2.337.358 2.177.05-.075.102-.638.259-1.512.515-1.402.155.042.17.354.226 1.062.498 3.923.934 10.352.491 5.022.786 6.124h.005l.453.04.32.285.032-.038.16-.19.05.077.132.627.479 4.281.92 8.596.159.011.302-.034.364.182.03-.06.13-.605.31-2.938 1.409-13.593 1.153-11.984 1.419-15.214 2.37-25.892 1.44-16.27.72-8.387.392-4.41 1.804-20.297 1.06-11.45 2.876-30.968.776-7.722.52-5.772.744-7.144.367-3.575.679-5.381.519-2.299.028.024.091.33.48 2.243.32.258.17-.146.381-.568.062.11.148.465.067-.15.151-1.073.551-4.284.47-2.546.39-2.012.278-.434.233-.328.164-.818.377-3.484.575-3.825.225-1.46.483-3.874.061-.083.053.089.11.694.295 1.83.57 2.64.333 1.291.237 2.086.245 1.406.069-.12.09-.124.05.06.184.586.622 1.905.116.08.036-.04.108-.403.227-2.05.937-8.828.34-1.678.067.117.129.854.887 9.033.832 8.694.2.882.012-.004.09-.186.181-1.005.697-4.198.093.207.137 1.053.562 4.447.618 4.768.082-.239.138-.429.044.039.155.438.38.925.156-.025.168-.333.22-1.007.486-2.873.067.11.127.757.73 5.985.476 3.75.074-.197.165-.552.045.036.167.422.355.729.17-.03.205-.333.347-1.038.272-1.712.095.223.254 1.608.324 1.322.209.173.147-.17.224-.675.281-.794.034.036.087.4.105.375.05-.08.132-.753.813-7.042.42-2.918.382-2.05.407-2.167.037.002.035.078.14.493.07-.153.182-1.15 1.314-9.515.483-2.77.198-.65.03.033.133.32.07-.167.167-1.172.62-4.767.553-3.75.081-.13.05.08.116.69 1.16 10.636.86 8.483.092.045.04-.035.22-.43.8-2.047.422-2.095.316-1.243.929-4.404.256-2.002.817-4.972.066-.08.05.083.082.131.051-.093.14-.805.981-6.918.387-1.986.083.205.167 1.313 1.41 14.36.346 2.965.067.088.053-.078.118-.604 1.353-9.76.021.018.088.35.092.184.05-.054.17-.545.391-1.046.191-.04.201.258.354.398.095.203.155 1.026.324 1.964.188.054.389-.002.192-.4.24-1.09.324-1.564.039.045.092.468.264 1.347.11-.113.485-.816.056.07.11.478.184 1.047.052-.081.132-.744.671-4.129.205-.487.182-1.347.496-4.164.115-.287.043.046.123.468.468 3.371.344 2.119.078-.113.15-.73.675-4.382.033.032.097.406.892 5.365.324 1.847.31 1.61.126.16.165.923.513 2.928.417 2.67.373 2.331.102-.262.265-1.783.342-1.62.222-.244.14.138.193.578.28 1.681.239 1.047.022-.016.085-.285.673-3.242.23-.206.151.145.205.574.495 2.435.178.898.024-.02.085-.323.3-2.51.543-4.153.307-3.09.642-7.068.278-1.644.08.105.15.699.799 4.795.06-.088.13-.665.877-8.018.464-4.45.144-.152.02.009.794.567.166.994.549 4.539.094-.164.529-2.112.853-6.082.277-1.862.036.017.03.073.12.285.056-.077.184-.696.664-2.455.07.034.02.04.129.603.827 4.65.18.036.172-.259.32-.56.041.05.127.233.058-.117.137-.895.463-3.27 1.08-2.696.652-4.991.536-3.186.085.18.058.072.052-.094.144-.81 1.233-8.666.015.008.078.22.218 1.532.367 2.024.459 1.152.01-.005.088-.182.153-.975.515-4.01.05.04.148.417.533 2.198.586 5.224.554 4.617.462 2.255.441 3.276.065.097.051-.092.104-.739.211-1.018.364-.477.467-.565.142-.464.05.077.121.68.773 5.323.316 1.108.859 3.92.016-.01.082-.224.172-1.338.583-4.844.592-1.945.487-2.347.404-.916.07.122.137.788.508 3.819.06-.057.243-.625.32-1.044.264-1.894.578-5.847.332-3.369.234-.847.513-.853.274-1.388.499-2.59.065.132.145 1.012 1.517 14.504.327 2.954.089.16.05-.058.12-.508.748-5.483.822-7.135.013.003.145.166.462.553.203.247.162.682.43 2.872.13-.058.12.245.828 2.14.018-.01.094-.226.157-1.143 1.325-11.688.011.004.074.187.178 1.266.54 3.75.168.457.026-.02.088-.317.22-1.937 1.441-14.59.368-3.836.325-1.714.564-1.952.049.057.097.476.177.979.042-.05.117-.532.683-3.548.081-.065.044.062.112.555.322 3.29.395 4.141 1.288 12.317.08-.097.172-.629.666-3.185.062.12.215 1.096.11-.267.706-2.523.283-.287.022.02.112.3.175 1.261.36 2.638h.006l.08-.148.209-.266.354-.091.207-.438.458-1.68.174-.894.034.037.098.462.334 3.133.431 3.462.36 3.644.8 7.096.014-.006.074-.213.757-3.228.22-.185.154.152.279.688.15.206.034-.037.107-.426.065-.123.055.1.135.849 1.01 7.763.288.993.204.12.174-.195.307-.436.044.055.114.166.05-.09.127-.742.492-3.214.221-.07.246-.154.329-.271.027.032.116.376.2 1.631.532 4.388.122-.053.401-.678.57-1.149.204-1.315.282-1.313.419-1.1.554-1.345.021.015.096.259.263 1.66 1.021 7.406 1.116 10.394.201.76.009-.002.072-.164.146-1.078 1.483-15.214.35-3.269.123-.246.037.027.137.333.418 1.857.337 1.415.043-.061.095-.581.104-.349.046.062.132.627.76 4.008.155.624.197 1.866.586 5.829.635 5.39.156-.036.29-.054.358.126.02-.04.125-.572.288-2.785 1.879-18.363.017.004.603.075.145.053.118.421.21 1.834 1.8 17.391.134.458.04-.045.103-.484.772-5.01.397-2.56.268-1.397.18-.095.183-1.116.701-4.637.488-3.137.045.05.149.565.582 2.147.065-.01.03-.054.103-.54.188-1.062.034.032.106.413.587 2.654.346.63.028-.021.105-.292.178-1.324.415-3.193.077.115.685 2.24.338 1.334.206.14.157-.183.42-.91.082.198.116.366.056-.103.136-.861.975-7.468.296-1.194.215-.182.156.156.388.707.071-.134.102-.212.052.091.128.776.551 3.79.556 1.58.41 2.42.217 1.318.06-.03.025-.046.712-1.54.07.095.104.563.123.509.043-.06.116-.625.527-4.792 1.174-9.9.22-1.078.028.028.08.394.188.784.016-.006.108-.196.693-2.246.257-1.86.74-5.65.06-.037.047.073.625 1.248.233.68.393 1.435.056-.081.097-.604.15-.717.03.027.102.386.782 3.69.075-.125.13-.809.607-6.371 1.288-13.026.084-.093.049.05.154.46.54 2.74.17.55.036-.04.083-.443.14-.624.038.04.119.477.726 3.379.06-.018.027-.054.118-.615.39-3.897.312-2.648.518-5.06 1.431-15.156.38-3.064.453-3.368.064.065.01.022.122.65 1.294 10.61.073-.166.352-1.109.52-.505.145-.536.194-1.07.06.115.143.939 1.368 12.374.487 4.014.051-.084.111-.722.219-.832.955-2.084.07.151.147 1.032.585 4.504.556 1.561.546 3.38.113.315.043-.058.11-.587.833-5.521.195-1.455.496-4.532.213-.721.114.116.83 1.622.206 1.612.25 1.332.195.177.292 1.198.546 1.976.242.581.157 1.436.56 5.074.514 4.277.074-.176.33-1.057.309.079.227-.037.124-.38.243-1.454.095.256.354 2.322.434 2.029.033-.028.096-.353.237-2.044.526-3.836.183-.155.127-.315.24-1.285.484-2.72.036-.001.038.082.193.9.103-.256.49-2.589.292-.98.066.039.019.041.12.631.456 4.335.272 1.791.308 2.022.512 4.737.165.44.021-.01.13-.227.457-1.426.386-.898.101-.15.14-.812.386-2.294.214-.098.31.051.202.335.45 1.158.083-.168.074-.119.051.092.13.782.549 3.76.491 1.779.642 3.707.079-.183.169-1.271.601-4.333.247-1.297 1.395-10.675.255-.219.358.012.14.701.405 2.622.052-.032.152.018.445.32.169-.29.219-.885.527-3.179.1.23.141 1.089 1.085 9.658.094.236.049-.08.453-1.078.448-.034.126-.423.237-1.436.088.215.244 1.64.526 2.67.057.017.04-.068.114-.6.382-3.858.348-2.974.439-4.408 1.119-11.19.734-5.204 2.313-23.295.47-2.173.028.023.092.337.738 3.827.277.329.23.242.145.67.287 2.785.612 6.229.445 2.668.243.356.148-.089.232-.493.215-.365.031.03.154.331.071-.185.157-1.204.396-3.039.985-4.061.277-1.7.081.191.182 1.33.534 3.548.093.124.047-.061.15-.625.32-1 .582-1.296.085.18.181.862.084-.221.201-1.52 1.216-10.281.395-3.124.208-.94.029.03.08.421.152.612.031-.021.117-.325.496-1.492.158.028.168.328.236 1.039.575 2.44.046.025.046-.082.122-.717.364-3.94.739-5.741.286-1.335.05.067.11.602.325 3.484.892 9.006.705 5.975.048-.057.112-.524 1.349-9.661.048.083.135.375.064-.095.202-.82.628-2.367.066.006.03.055.121.57.64 5.11.213.775h.003l.07-.136.164-1.001.544-3.347.404-1.096.043.042.108.406.201 1.83.345 3.075.127.16.034-.021.158-.307.469-1.496.34-1.338.047.069.102.63.095.292.048-.072.137-.696 1.244-8.927.728-6.515.04-.026.048.097.375 1.147.05-.02.491-.16.013.027.123.562.209 1.254.047-.064.126-.622.519-2.711.296-.846.02.011.088.226.166 1.228.717 5.808.417 1.162.298 1.884.321 1.41.25.298.326.21.209.463.06-.093.135-.685.633-5.844 1.095-10.65.299-1.138.2-.134.147.194.205.714.448 2.27.086-.204.13-1.156.206-.811.303-.241.252-.009.255-.017.122-.415.086-.179.05.081.123.702.666 4.545.401.91.356 1.618.193 1.47.196 1.05.061-.034.022-.043.697-1.605.082.132.112.695.11.41.044-.061.117-.63.625-5.492 1.265-10.411.029.027.08.388.213.839h.001l.112-.13.345-.907.334-.947.062.104.12.712.425 3.157.446 2.15 2.046 10.147.26 1.608.092-.093.418-.545.335-.64.132-.108.035.038.095.377.112.388.05-.082.127-.758 1.325-10.027.023.016.084.289.217 1.895 1.303 13.316.356 3.492.107.255.046-.05.119-.486.692-5.126.856-7.502.028.01.16.226.5.704.2.373.178.967.376 2.052.131.25.305 1.32.906 4.747.488 3.467.562 3.463.085-.223.076-.165.055.093.15.813.952 7.592.22 1.01.346.758.484.978.196.665.211 1.671.257 1.491.236.152.375 1.572.434 1.407.126-.037.081.01.027.045.136.568.345 2.826.572 3.966.206.053.201.136.211.485.35 1.521.194 1.343.18.895.01-.003.07-.167.187-1.23.379-2.03.405-1.162.037.032.103.359.2 1.73.434 3.792.165.118.004-.002.493-.105.205-.007.122-.345.19-1.38.47-3.82.03.02.101.292 1.39 6.435.263 2.509.22 1.182.012-.006.076-.208.102-.18.048.046.189.5.33.645.152-.05.178-.374.274-1.198.212-.692.03.029.083.364.159.813.048-.063.133-.634.675-3.508.057.005.035.063.167.702.246.588.35.445.232.87.449 2.217.07-.135.11-.826.215-1.232.308-.419.24-.085.23.206.175.065.02-.024.125-.394.06-.075.05.09.127.753.595 4.102.52 1.117.408 1.735.467 2.716.43.843.412.44.167 1.113.958 7.663.322 1.23.385 1.635.04-.042.093-.418.245-1.383.04.03.13.369.638 2.529.088-.194.126-.995.276-1.988.552-3.126 1.493-7.307.43-2.523.315-1.989.095.236.232 1.605.344 1.725.344.64.2.202.032-.032.113-.358.18-1.468.295-2.142.048-.002.042.069.23.245.323.034.19.357.51 1.767.225 1.151.075-.168.161-1.204 1.826-16.307.051.08.102.679.218 1.005.52.903.287.357.177.544.066-.128.14-.91.573-4.22.826-1.463.149-.514.147-1.444.307-2.19.732-4.308.124-.267.045.037.06.02.039-.072.127-.69.577-3.563.364-1.875.593-3.464.045.029.024.058.121.755 1.147 10.764.749 7.323.06.05.05-.071.13-.583.787-6.01 1.29-12.496.132-.327.039.043.105.472.824 5.208.061-.096.122-.726 1.3-11.973 1.452-15.713.407-4.3.326-2.281.192-.165.265-.155.215-.496.356-1.543.182-1.316.184-.908.006.001.07.148.18 1.111.391 2.042.248.344.172-.082.396-.25.085-.144.14-.837.386-2.371.184.045.364.11.196.467.227 1.181.507 4.43 2.343 24.386.497 1.834.07-.052.013-.03.12-.62.24-2.644.311-2.713.241-.644.365-.66.261-1.122.547-3.1.086.21.206 1.48.478 2.84.166.393.028-.022.09-.316.208-1.85 1.798-17.724.093.157.162.848.697 4.192.034-.034.099-.415 1.381-8.76.018.009.09.015.031-.065.137-.714 1.04-6.66.316-1.868.088.224.193 1.511.548 3.827.367 1.118.615 4.177.099-.305.388-1.77.439-.416.219-.186.214-.666.09.249.173 1.425.409 3.458.295.68.291.793.354 1.809.217 1.582.163.698.018-.01.08-.248.25-1.818.466-2.512.15-.308.033.028.095.36.225 2.037 1.213 11.588.3 2.69.332 2.14.033-.031.09-.408.386-2.093.392-1.245.181-.042.158.254.209.826.601 2.735.183.034.194-.26.36-.917.139-1.255.197-.983.125.029.82.708.044-.08.176-.603.082.222.173 1.396.467 3.936 1.463 8.601.352 2.878.042-.023.025-.063.36-.796.426-.097.175-.2.134-.619.215-1.304.048.066.127.637.501 2.635.333.938.032-.024.098-.311.191-1.572.538-4.546.217-.17.239-.22.595-1.135.143-1.239.284-2.262.736-5.14.109-.267.046.073.1.209.056-.104.151-.861 1.191-8.5.042.04.187.553.48.997.229.317.025-.02.092-.282.148-.647.059.111.142.928 1.263 9.846.125.16.857 2.025.213 1.672.248 1.344.199.152.272 1.179.572 2.262.217.787.19 1.903.994 7.667.051-.099.163-.592.073.121.246 1.022.437 1.351.255.392.014-.007.096-.208.159-1.025.588-4.673.05.033.16.346.491 1.749.3 1.18.037-.043.086-.469.128-.542.041.051.125.567.759 3.96.132.325.171 1.177 1.252 12.767.861 9.497.567 6.482 2.556 25.397.091.064.043-.037.225-.45.51-.87.182-.659.898-4.315.818-4.4.236-1.756.957-4.488.236-.541.638-3.187.412-.93.275-.41.123-.09.133-.617.414-3.743.77-6.909.037.01.033.075.53 1.388.401.46.132.675.157.77.037-.043.103-.51.35-3.322 1.546-13.455.068.145.508 1.698.52.834.183.812.063-.124.141-.951 1.235-10.304.033.031.098.402.84 5.12.076-.15.14-.975 1.402-14.296.558-4.906.103.068.212.564.667 2.152.067-.113.084-.142.051.092.13.79.548 3.738.46 1.884.666 3.657.015-.008.074-.22.182-1.482 1.375-13.863.347-2.9.059-.07.052.086.115.68.307 1.679.688 3.307.27 1.405.406 2.944.08-.146.071-.077.052.067.179.637.695 2.487.085-.095.247-.572.075.092.242.702.706 2.044.092.207.158 1.096.316 1.894.21.174.41.01.276-.298.358-.666.2-1.357.269-1.282.3-.716.696-1.81.013.007.09.205.199 1.22.76 4.564.332 2.036.55 4.673.097-.26.302-1 .313-.74.614-1.895.084.216.175 1.389.915 8.13.433 1.829.055-.08.117-.643.282-3.15.578-5.654.453-2.802.039.04.13.486.48 1.726.26.499.016-.01.088-.217.2-1.05.09.245.238 1.768 1.74 14.607.072-.183.274-1.053.038.018.19.277.422.758.06-.097.116-.635.281-1.624.151.042.66.237.004-.007.117-.483.088-.212.051.084.125.739.83 5.975.36 2.27 1.104 7.961.099-.316.2-.506.17.115.566.403.097-.218.123-.92.212-1.258.119-.012.017.013.702.413.1-.3.131-.451.054.09.127.775.886 6.54.947 6.42.4 3.256.026-.023.086-.363.199-.503.194.065.476.135.111-.27.124-.978.188-.935.076.108.193.858.653 3.973 1.246 12.724 1.948 21.905.687 6.32.755 3.95.274 1.414.03-.033.082-.413.2-.916.016.007.103.198.545 1.957.243 1.402.393 4.18.398 4.419 1.514 14.377.627 1.883.077-.143.118-.85.098-.305.048.069.128.683 1.376 10.498.697 6.247.006-.002.074-.147.178-1.05.593-3.55.63-4.143.209-.975.018.012.12.143.055-.113.18-.917 1.505-9.031.992-4.078.355-1.619.828-1.782.007.004.09.19 1.09 3.569.097.092.042-.055.095-.477.129-.574.044.062.12.638.818 6.662.852 7.658.231 1.19.025-.025.078-.37.178-.703.021.01.114.22.884 2.844.267.942.126-.114.45-.459.22-.153.143-.532.222-1.915.376-3.213.052-.016.045.07.179.72.486 2.082.358 1.7.574 1.869.277 2.957.287 2.407.086.116.05-.057.13-.51.693-4.118.793-6.685.096.284.27.93.636.87.135.758.146.66.034-.038.099-.471.308-2.954.51-4.408 1.075-9.519.061.1.117.818.21.725.575.72.15.404.178.75.061-.116.137-.904 1.154-9.186.38-1.119.063.093.126.66.235 2.628.29 2.114.155.157.015-.007.242-.257.322-.167.219-.144.147-.5.198-1.641.254-1.521.094.078h.08l.032-.044.239-.615.322-.546.214.003.372.311.147.541.617 2.86.832 2.447.077-.11.187-.364.053.064.16.551.403 2.438.263 1.177.031-.034.082-.423.149-.67.037.034.118.433.54 2.14.358.591.017-.01.101-.229.163-1.063.463-3.667.05.051.188.613.47 1.506.392 1.63.2.117.152-.197.241-.766.25-.676.029.027.083.339.126.534.05-.082.134-.762.793-6.761.52-3.978.39-2.94.236-1.092.027.027.079.389.128.49.042-.045.132-.498.628-2.554.176-.258.026.02.096.285.183 1.456.785 6.679.629 2.627.086-.183.116-.988.17-.66.008.002.087.157.259 1.146.52 3.026.954 9.48 1.077 12.446.987 10.567.869 7.56.264 1.216.014-.006.076-.2.16-1.263 2.014-18.98.042.02.215.306.306.268.225.183.15.557.205 1.778.275 2.02.039.008.043-.08.19-.314.033.018.472.205.208-.362.377-1.184.232-1.418.072.152.17 1.151.554 3.521.085.09.046-.059.5-.849.195-.111.196-.44.243-1.17.58-2.81h.002l.066.132.139.966.813 8.323.294 2.759.742 5.99.046-.064.1-.576.271-1.448.59-1.844.147.073.178.413.228 1.18.37 1.728.22.205.155-.147.405-.76.08.177.099.228.052-.091.129-.78.592-4.132.444-1.606.702-3.828.06.11.13.858.833 8.377.317 3.161.704 5.985.019-.01.081-.251 1.164-5.455.224-1.195.465-3.681.103.288.132.227.033-.018.207-.315.271-.224.185.133.345.607.143.864.214 1.248.01-.003.08-.176.235-1.278.51-2.376.268-1.643.348-3.828.27-1.604.076.092.15.718 1.107 6.143.436 3.071.093-.18.053-.04.05.08.166.717.962 5.909.265 2.008.81 4.878.037.005.04-.083.105-.268.058.108.151.897 1.185 8.682.024-.016.1-.298.665-2.297.074.02.025.044.1.513.165.883.04-.051.115-.556.748-4.28.134-.276.178-1.076.622-4.885.048-.012.045.07.137.608.753 5.029.081-.151.14-.88 1.365-11.918.1.118.228.738.632 2.451.075-.187.14-.599.064.124.164 1.001 1.907 14.088.046-.076.172-.705.091.208.301 1.632.492 2.189.124-.044.084.042.015.029.145.59.351 2.74.332 2.105.035-.035.1-.422 1.357-8.703.147-.09.075-.146.165-.981.486-2.949.375-2.5.447-2.656.066.126.144.954.604 4.213.084.099.048-.065.472-.792.201-.12.196-.449.236-1.181.371-1.673.328-1.178.093.227.17 1.333.595 4.951.558 2.048.638 3.385.296 1.4.263 2.573.265 1.977.041.02.046-.089.33-.713.535.019.127-.173.13-.663.224-1.358.035.031.11.403.66 2.857.386.798.212 1.565.81 6.704.228 1.953.48 4.216.118.233.041-.033.145-.384.385-1.85.342-1.43.04.055.098.558.087.252.052-.079.143-.744.968-7.203.943-7.457.036-.018.044.098.19.77.085-.14.627-1.58.045.027.16.284.216.91.512 3.037.085-.177.134-.972.44-3.556.737-5.715.017.012.073.28.125.362.043-.04.151-.45.4-1.062.164.008.169.313.268 1.059.218.66.03-.027.08-.348.139-.637.048.074.135.708.975 7.45.958 7.711.026-.025.079-.38.166-.597.022.01.119.23.622 1.41.2.608.172.459.042-.046.12-.471.369-2.898.594-6.203 1.63-18.328.635-5.44.136-.304.037.035.337.421.036-.023.27-.052.184.256.306.905.242 1.205.292 1.738.13-.11.817-.844.048.086.175.614.083-.224.175-1.414.485-4.125.85-4.498.202-.077.493.285.133.9.308 2.318.477 2.231.407 1.99.327 1.307.206 1.184.357 1.679.648 2.367.264 1.769.231 1.643.573 1.59.435.977.21 1.574.336 2.485h.003l.067-.134.148-.264.039.025.257.406.227.122.164-.188.233-.68.396-1.82.149-.651.028.025.09.376.328 2.828.338 2.587.326 2.855.988 9.625.057.05.051-.076.12-.61 1.392-9.597.032.04.152.4.078-.141.27-1.147.56-1.973.08.063.007.018.126.628.828 5.89.088-.15.26-.412.003.001.42.041.22-.426.384-1.296.53-2.556.339-.28.156.17.2.619.787 2.973.282.397.067-.132.142-.83.423-3.056.043.038.743 1.377.498 1.752.293.918.096-.25.172-1.377.468-3.875.224-.251.26-.278.673-1.39.716-6.09.46-3.392.067.16.14.48.055-.073.175-.674.555-2.007.196-.29.023.015.096.259.17 1.289.805 6.709.421 1.829.273.983.02-.013.08-.243.266-1.53.1.19.295 1.38.568 3.26.87 7.156.389.426.258.86.381 2.182.202 1.126.073-.091.19-.825.595-2.614.033.031.097.38.697 3.843.32.528.212.392.175.985.272 3 .287 2.153.068.052.05-.064.14-.55.625-3.532.873-7.545.091.222.693 2.803.27.49.266.049.138.152.115.148.047-.067.118-.576.475-3.243.074.071.601 1.18.243 1.522.424 2.328.347 2.065.38 2.83.05-.08.123-.26.056.073.196.677.593 1.898.13.116.036-.036.104-.377.214-1.89 1.029-9.557.248-1.155.011.005.073.183.157 1.21 1.982 18.765.062-.046.192-.425.816-1.92.102-.362.231-1.93.241-.973.201-.065.307.094.206.387.468 1.422.087-.236.102-.312.054.097.137.836 1.24 9.375.078.112.05-.08.115-.678.612-6.074 1.297-12.317.035.03.105.377.568 3.892.83 7.14.052-.084.602-1.543.416-.846.21-1.09.078.19.175 1.33 1.796 15.8.047-.071.1-.651.205-.876.247-.161.389-.274.125-.532.155-.711.045.064.114.64.435 4.284 1.247 10.041.303 1.665.028-.028.079-.386.184-.812.023.011.11.244.952 3.477 1.696 13.644.059-.063.148-.537.684-3.81.1.317.256 1.3.043-.029.149-.35.505-1.537.068.117.115.727.26 1.652.414.733.175-.013.17-.302.241-.978.299-1.153.03.027.085.347.2 1.127.057-.077.148-.685.41-1.734.214-.177.153.163.429.897.088-.189.076-.128.052.09.127.765.026.237h0" fill="none" stroke="#1f77b4" stroke-linecap="square" stroke-width="1.5" id="line2d_12"/><path d="M172.44 609.4V82.167" fill="none" stroke="#000" stroke-linecap="square" stroke-width=".8" id="patch_3"/><path d="M1241.568 609.4V82.167" fill="none" stroke="#000" stroke-linecap="square" stroke-width=".8" id="patch_4"/><path d="M172.44 609.4h1069.128" fill="none" stroke="#000" stroke-linecap="square" stroke-width=".8" id="patch_5"/><path d="M172.44 82.166h1069.128" fill="none" stroke="#000" stroke-linecap="square" stroke-width=".8" id="patch_6"/></g></g><defs><clipPath id="pfe4d6abdaa"><path d="M172.44 82.166h1069.128V609.4H172.44z"/></clipPath></defs></svg>