<svg height="912.96" viewBox="0 0 1379.52 684.72" width="1839.36" xmlns="http://www.w3.org/2000/svg" xmlns:xlink="http://www.w3.org/1999/xlink"><defs><style>*{stroke-linecap:butt;stroke-linejoin:round}</style></defs><g id="figure_1"><path d="M0 684.72h1379.52V0H0z" fill="#fff" id="patch_1"/><g id="axes_1"><path d="M172.44 609.4h1069.128V82.167H172.44z" fill="#fff" id="patch_2"/><g id="matplotlib.axis_1"><g id="xtick_1"><g id="line2d_1"><defs><path d="M0 0v3.5" id="ma8badcea30" stroke="#000" stroke-width=".8"/></defs><use x="221.037" xlink:href="#ma8badcea30" y="609.401" stroke="#000" stroke-width=".8"/></g><g id="text_1"><defs><path d="M31.781 66.406q-7.61 0-11.453-7.5Q16.5 51.422 16.5 36.375q0-14.984 3.828-22.484 3.844-7.5 11.453-7.5 7.672 0 11.5 7.5 3.844 7.5 3.844 22.484 0 15.047-3.844 22.531-3.828 7.5-11.5 7.5zm0 7.813q12.266 0 18.735-9.703 6.468-9.688 6.468-28.141 0-18.406-6.468-28.11-6.47-9.687-18.735-9.687-12.25 0-18.718 9.688-6.47 9.703-6.47 28.109 0 18.453 6.47 28.14Q19.53 74.22 31.78 74.22z" id="DejaVuSans-48"/></defs><use xlink:href="#DejaVuSans-48" transform="matrix(.1 0 0 -.1 217.855 624)"/></g></g><g id="xtick_2"><use x="415.424" xlink:href="#ma8badcea30" y="609.401" stroke="#000" stroke-width=".8" id="line2d_2"/><g id="text_2"><defs><path d="M19.188 8.297h34.421V0H7.33v8.297q5.609 5.812 15.296 15.594 9.703 9.797 12.188 12.64 4.734 5.313 6.609 9 1.89 3.688 1.89 7.25 0 5.813-4.078 9.469-4.078 3.672-10.625 3.672-4.64 0-9.797-1.61-5.14-1.609-11-4.89v9.969Q13.767 71.78 18.938 73q5.188 1.219 9.485 1.219 11.328 0 18.062-5.672 6.735-5.656 6.735-15.125 0-4.5-1.688-8.531-1.672-4.016-6.125-9.485-1.218-1.422-7.765-8.187-6.532-6.766-18.453-18.922z" id="DejaVuSans-50"/></defs><g transform="matrix(.1 0 0 -.1 405.88 624)"><use xlink:href="#DejaVuSans-50"/><use x="63.623" xlink:href="#DejaVuSans-48"/><use x="127.246" xlink:href="#DejaVuSans-48"/></g></g></g><g id="xtick_3"><use x="609.811" xlink:href="#ma8badcea30" y="609.401" stroke="#000" stroke-width=".8" id="line2d_3"/><g id="text_3"><defs><path d="M37.797 64.313L12.89 25.39h24.906zm-2.594 8.593H47.61V25.391h10.407v-8.203H47.609V0h-9.812v17.188H4.89v9.515z" id="DejaVuSans-52"/></defs><g transform="matrix(.1 0 0 -.1 600.267 624)"><use xlink:href="#DejaVuSans-52"/><use x="63.623" xlink:href="#DejaVuSans-48"/><use x="127.246" xlink:href="#DejaVuSans-48"/></g></g></g><g id="xtick_4"><use x="804.197" xlink:href="#ma8badcea30" y="609.401" stroke="#000" stroke-width=".8" id="line2d_4"/><g id="text_4"><defs><path d="M33.016 40.375q-6.641 0-10.532-4.547-3.875-4.531-3.875-12.437 0-7.86 3.875-12.438 3.891-4.562 10.532-4.562 6.64 0 10.515 4.562 3.875 4.578 3.875 12.438 0 7.906-3.875 12.437-3.875 4.547-10.515 4.547zm19.578 30.922v-8.984q-3.719 1.75-7.5 2.671-3.782.938-7.5.938-9.766 0-14.922-6.594-5.14-6.594-5.875-19.922 2.875 4.25 7.219 6.516 4.359 2.266 9.578 2.266 10.984 0 17.36-6.672 6.374-6.657 6.374-18.125 0-11.235-6.64-18.032-6.641-6.78-17.672-6.78-12.657 0-19.344 9.687-6.688 9.703-6.688 28.109 0 17.281 8.204 27.563 8.203 10.28 22.015 10.28 3.719 0 7.5-.734t7.89-2.187z" id="DejaVuSans-54"/></defs><g transform="matrix(.1 0 0 -.1 794.654 624)"><use xlink:href="#DejaVuSans-54"/><use x="63.623" xlink:href="#DejaVuSans-48"/><use x="127.246" xlink:href="#DejaVuSans-48"/></g></g></g><g id="xtick_5"><use x="998.584" xlink:href="#ma8badcea30" y="609.401" stroke="#000" stroke-width=".8" id="line2d_5"/><g id="text_5"><defs><path d="M31.781 34.625q-7.031 0-11.062-3.766-4.016-3.765-4.016-10.343 0-6.594 4.016-10.36Q24.75 6.391 31.78 6.391q7.032 0 11.078 3.78 4.063 3.798 4.063 10.345 0 6.578-4.031 10.343-4.016 3.766-11.11 3.766zm-9.86 4.188q-6.343 1.562-9.89 5.906Q8.5 49.079 8.5 55.329q0 8.733 6.219 13.812 6.234 5.078 17.062 5.078 10.89 0 17.094-5.078 6.203-5.079 6.203-13.813 0-6.25-3.547-10.61-3.531-4.343-9.828-5.906 7.125-1.656 11.094-6.5 3.984-4.828 3.984-11.796 0-10.61-6.468-16.282-6.47-5.656-18.532-5.656-12.047 0-18.531 5.656-6.469 5.672-6.469 16.282 0 6.968 4 11.797 4.016 4.843 11.14 6.5zM18.314 54.39q0-5.657 3.53-8.828 3.548-3.172 9.938-3.172 6.36 0 9.938 3.172 3.593 3.171 3.593 8.828 0 5.672-3.593 8.843-3.578 3.172-9.938 3.172-6.39 0-9.937-3.172-3.532-3.172-3.532-8.843z" id="DejaVuSans-56"/></defs><g transform="matrix(.1 0 0 -.1 989.04 624)"><use xlink:href="#DejaVuSans-56"/><use x="63.623" xlink:href="#DejaVuSans-48"/><use x="127.246" xlink:href="#DejaVuSans-48"/></g></g></g><g id="xtick_6"><use x="1192.971" xlink:href="#ma8badcea30" y="609.401" stroke="#000" stroke-width=".8" id="line2d_6"/><g id="text_6"><defs><path d="M12.406 8.297h16.11v55.625l-17.532-3.516v8.985l17.438 3.515h9.86V8.296H54.39V0H12.406z" id="DejaVuSans-49"/></defs><g transform="matrix(.1 0 0 -.1 1180.246 624)"><use xlink:href="#DejaVuSans-49"/><use x="63.623" xlink:href="#DejaVuSans-48"/><use x="127.246" xlink:href="#DejaVuSans-48"/><use x="190.869" xlink:href="#DejaVuSans-48"/></g></g></g><g id="text_7"><defs><path d="M18.313 70.219V54.688h18.5v-6.985h-18.5V18.016q0-6.688 1.828-8.594 1.828-1.906 7.453-1.906h9.218V0h-9.218q-10.407 0-14.36 3.875-3.953 3.89-3.953 14.14v29.688H2.687v6.984h6.594V70.22z" id="DejaVuSans-116"/></defs><use xlink:href="#DejaVuSans-116" transform="matrix(.1 0 0 -.1 705.044 637.677)"/></g></g><g id="matplotlib.axis_2"><g id="ytick_1"><g id="line2d_7"><defs><path d="M0 0h-3.5" id="m8e0f86e8b3" stroke="#000" stroke-width=".8"/></defs><use x="172.44" xlink:href="#m8e0f86e8b3" y="578.083" stroke="#000" stroke-width=".8"/></g><g id="text_8"><defs><path d="M10.594 35.5h62.593v-8.297H10.594z" id="DejaVuSans-8722"/><path d="M10.797 72.906h38.719v-8.312H19.828v-17.86q2.14.735 4.281 1.094 2.157.36 4.313.36 12.203 0 19.328-6.688 7.14-6.688 7.14-18.11 0-11.765-7.328-18.296-7.328-6.516-20.656-6.516-4.593 0-9.36.781-4.75.782-9.827 2.344v9.922q4.39-2.39 9.078-3.563 4.687-1.171 9.906-1.171 8.453 0 13.375 4.437 4.938 4.438 4.938 12.063 0 7.609-4.938 12.047-4.922 4.453-13.375 4.453-3.953 0-7.89-.875-3.922-.875-8.016-2.735z" id="DejaVuSans-53"/></defs><g transform="matrix(.1 0 0 -.1 137.973 581.883)"><use xlink:href="#DejaVuSans-8722"/><use x="83.789" xlink:href="#DejaVuSans-49"/><use x="147.412" xlink:href="#DejaVuSans-53"/><use x="211.035" xlink:href="#DejaVuSans-48"/></g></g></g><g id="ytick_2"><use x="172.44" xlink:href="#m8e0f86e8b3" y="462.001" stroke="#000" stroke-width=".8" id="line2d_8"/><g transform="matrix(.1 0 0 -.1 137.973 465.8)" id="text_9"><use xlink:href="#DejaVuSans-8722"/><use x="83.789" xlink:href="#DejaVuSans-49"/><use x="147.412" xlink:href="#DejaVuSans-48"/><use x="211.035" xlink:href="#DejaVuSans-48"/></g></g><g id="ytick_3"><use x="172.44" xlink:href="#m8e0f86e8b3" y="345.918" stroke="#000" stroke-width=".8" id="line2d_9"/><g transform="matrix(.1 0 0 -.1 144.335 349.718)" id="text_10"><use xlink:href="#DejaVuSans-8722"/><use x="83.789" xlink:href="#DejaVuSans-53"/><use x="147.412" xlink:href="#DejaVuSans-48"/></g></g><g id="ytick_4"><use x="172.44" xlink:href="#m8e0f86e8b3" y="229.836" stroke="#000" stroke-width=".8" id="line2d_10"/><use xlink:href="#DejaVuSans-48" transform="matrix(.1 0 0 -.1 159.077 233.635)" id="text_11"/></g><g id="ytick_5"><use x="172.44" xlink:href="#m8e0f86e8b3" y="113.754" stroke="#000" stroke-width=".8" id="line2d_11"/><g transform="matrix(.1 0 0 -.1 152.715 117.553)" id="text_12"><use xlink:href="#DejaVuSans-53"/><use x="63.623" xlink:href="#DejaVuSans-48"/></g></g><g id="text_13"><defs><path d="M45.516 34.672H14.453q-2.094-14.61.047-20.797 2.688-7.625 9.969-7.625 7.312 0 12.89 7.672 4.875 6.734 8.157 20.75zm1.5 8.297q1.328 13.875-.391 18.75-2.672 7.718-9.86 7.718-7.468 0-12.937-7.624-4.297-6.141-7.672-18.844zm-8.828 33.797q11.718 0 16.406-10.36 4.687-10.297 1.125-28.562Q52.203 19.625 43.453 9.28 34.766-1.125 23.047-1.125 11.28-1.125 6.64 9.281 2 19.625 5.516 37.844q3.562 18.265 12.203 28.562 8.703 10.36 20.468 10.36z" id="DejaVuSans-Oblique-952"/></defs><g transform="matrix(0 -.1 -.1 0 131.893 351.234)"><use transform="translate(0 .234)" xlink:href="#DejaVuSans-Oblique-952"/><use transform="matrix(.7 0 0 .7 61.182 -16.172)" xlink:href="#DejaVuSans-49"/></g></g></g><path clip-path="url(#pe0de3f5a7d)" d="M221.037 222.542l.288.111.135.416.17 1.41.414 6.087.285 3.832.372 2.273.443 2.675.234 3.08.31 3.382.046-.115.068-.177.055.132.165 1.194.365 2.175.17.159.013-.006.152-.22.214-.713.187-1.65.715-8.126.632-3.482.293-4.294.321-4.729.102-.384.048.096.117.925.275 1.361.213 1.215.177 2.67.144.819.031-.043.255-.867.097.246.17 1.083.083-.35.183-2.377.62-7.879.403-4.152.651-7.456.288-.336.123.115.16.546.28 1.942.167.78.039-.062.062-.125.048.14.13 1.295.577 6.294.366 1.034.21.23.019-.013.106-.252.462-1.34.21-.573.213-1.349.233-3.166.396-4.907.246-.771.107.069.145.495.209 1.628.358 3.909.074-.38.135-1.074.058.164.133 1.359.462 4.73.063-.057.012-.03.137-.672.229-2.471.402-4.373.066.318.128.882.057-.14.134-1.172.497-4.529h.001l.08.126.158.787.245 2.566.368 3.77.055-.22.106-.626.06.18.162 1.536.36 2.806.224.418.175-.073.212-.298.146-.958.173-2.725.506-6.783.12-.306.04.037.122.41.192 1.545.506 5.188.078-.452.098-.583.053.14.137 1.245.444 3.897.437 2.845.325 4.514.48 6.239.144.63.033-.042.088-.513.198-2.911.41-5.308.281-1.07.095-.018.032.038.137.413.245 1.616 1.005 7.096.136-.102.199-.507.232-1.245.225-2.573.251-2.928.223-.449.436-.621.042.067.11.602.19 2.503.289 3.09.2.434.524 1.972.305.442.057-.118.132-.867.195-2.995.49-5.831.033.04.091.497.46 5.133.318 2.806.311 1.43.033-.028.095-.366.175-1.765.513-6.797.08.274.254.914.12-.056.098-.097.043.086.11.753.58 5.038.33 1.398.09-.268.155-1.542.52-6.75.074.204.328 1.151.227.432.14 1.477.292 3.24.555 1.912.062-.142.129-1.037.237-4.027.28-3.152.05-.07.052.117.422 1.276.117.205.13.977.482 4.36.298 1.112.118.4.05-.082.11-.741.213-3.182.304-4.105.069-.164.052.116.346.975.23.109.13 1.17.396 4.25.508 1.842.013-.007.074-.214.147-1.27.475-6.127.11.34.082.098.05-.05.153-.461.318-1.545.091.287.137 1.454.607 8.623.161.572.021-.01.103-.232.181-1.073.415-4.537.153-1.068.04.112.113.65.069-.244.196-2.02.33-2.4.16-.26.025.015.114.252.19 1.07.244 2.8.208 1.914.032-.067.084-.85.088-.472.052.133.125 1.193.568 5.875.113.088.035-.025.187-.337.31-1.023.225-1.649.677-6.003.5-3.718.273-.555.108.085.125.518.197 2.006.664 8.626.088-.218.23-1.717.293-2.806.49-4.882.04-.037.048.114.109.968.703 8.587.058-.12.151-1.09.31-1.634.044-.003.037.078.13.544.07-.262.159-1.886.53-6.512.22-.406.209.026.2.24.177.65.204 1.766.429 5.312.1-.167.061.132.182 1.16.355 1.767.278.354.163.159.044-.078.122-.68.164-2.261.456-6.396.077-.224.053.116.105.922.42 4.073.443 3.83.051-.113.109-.987.693-8.4.042.063.116.697.364 1.965.052.02.042-.078.125-.458.064.22.147 1.655.54 6.414.093.07.043-.043.134-.413.277-1.774.254-3.063.217-2.19.032.06.076.751.134.909.035-.052.097-.622.21-1.644.056.158.1 1.168.216 2.031.317.983.181 1.614.067-.233.139-1.726.519-6.543.1-.261.047.078.108.726.417 3.44.044-.083.148-.917.087.437.238 3.226.433 4.893.659 4.67.442 5.576.023-.035.08-.615.083-.307.054.104.132.91.457 3.8.051-.067.127-.589.19-2.07.452-5.088.054.201.156 1.126.072-.21.154-1.487.248-2.11.03.038.09.513.298 3.805.51 4.71.168.233.021-.012.115-.232.182-.977.242-2.696.21-1.902.034.07.086.867.077.368.054-.156.134-1.365.461-4.611.417-3.357.395-5.943.318-4.609.41-3.74.349-3.328.288-2.809.034.07.086.839.075.384.055-.172.138-1.507.376-3.64.219-.512h0l.1.136.164.715.225 2.105.29 3.02.046-.142.157-1.228.087.377.209 2.6.504 5.332.78 5.607.05-.132.107-.577.065.245.168 1.995.543 6.119.598 4.21.498 6.584.068-.288.194-1.175.044.052.11.534.137.637.05-.118.105-.979.296-2.993.28-1.11.199-1.457.071.235.144 1.643.772 9.718.415 4.335.506 6.75h.003l.052-.129.121-1.14.266-1.45.215-1.323.28-3.05.096.412.236 1.34.039-.053.084-.536.117-.836.055.172.133 1.495.594 7.034.247.524.308.929.329 1.573.236 2.418.37 4.307.023-.027.07-.12.05.121.158 1.134.376 2.304.122.113.035-.028.131-.326.203-1.19.234-2.981.447-4.862.083-.212.05.105.107.889.721 8.847.082-.241.453-2.794.093.305.093.432.057-.174.136-1.457.663-7.84.859-4.414.2-3.348.506-6.503.203-.521.146.076.303.47.198.746.216 1.86.466 6.04.116-.386.033-.016.048.094.159.863.785 4.6.137-.127.344-.717.22-1.001.23-2.309.416-5.38.06.183.082.228.056-.1.159-.894.799-4.825.157.032.445.431.154.658.201 2.048 1.632 20.67.033-.066.079-.794.138-1.049.035.057.095.679.208 1.703.053-.14.096-1.116.202-1.737.062.097.115.248.052-.094.105-.732.166-1.54.057.185.126 1.528.426 5.093.267.908.096-.029.016-.025.142-.468.264-1.826.604-5.627.241-1.126.175-.067.161.226.238.784.222 1.558.177 2.844.23 1.946.302.664.326.379.018-.016.091-.297.157-1.46.44-4.37.135-.603.426-1.86.139-.007.008.008.182.341.195.815.184 2.008.38 5.014.287 1.534.203.244.003-.001.128-.172.197-.723.234-1.827.224-3.336.26-3.016.298-1.558.21-.262.002.001.12.17.181.726.21 1.884.575 6.554.058-.113.354-.869.01.004.096.174.121.367.057-.145.127-1.147.505-6.245.079.196.284.727.312.471.14 1.675.271 3.283.319 1.422.319.752.03-.03.098-.367.168-1.69.387-4.437.033.012.077-.09.163-.808.378-1.579.388-.547.016.015.089.307.157 1.494.61 7.925.021-.019.078-.338.3-3.02.709-6.211.045.07.102.672.269 3.818.558 7.54.464 5.511.591 6.43.286.339.12-.134.165-.614.25-1.984.22-1.45.035.07.101.45.064-.246.173-2.012.52-5.646.662-4.505.481-6.311.036.077.104.966.122.433.037-.04.103-.461.151-.744.053.129.105 1.024.283 2.878.293 1.165.192 1.416.069-.217.139-1.555.763-9.551.421-4.065.487-6.533.04.086.108.979.173.615.01-.003.083-.165.104-.236.05.11.109.893.295 2.91.025-.013.119-.04.033.052.122.514.182 1.324.077-.284.161-1.985.682-8.628.457-4.597.534-7.118.023.022.075.378.866 7.517.088-.386.322-2.853.082.341.141 1.188.068-.268.165-2.118.381-3.983.257-1.214.057.023.025.053.114.62.229 2.885.755 9.516.685 3.333.354 4.777.237 2.795.279 1.156.2.212.009-.005.118-.2.176-.832.245-2.415.218-1.791.034.072.14.937.088-.432.78-5.942.1-.008.027.034.123.408.181 1.546.469 6.063.12-.357.036-.006.045.082.162.777.593 3.542.082-.124.168-.786.22-2.177.403-4.098.042.12.099.496.062-.201.178-1.726.358-2.683.165-.29.024.014.111.246.193 1.09.412 3.461.093-.45.043-.113.055.183.156 1.632.52 5.18.166.384.03-.025.112-.35.384-1.162.22-1.015.292-2.662.156-.882.038.085.116.64.07-.296.198-2.385.485-4.994.206-.407.171-.098.217-.602.342-1.597.233-2.282.366-3.807.013.005h.055l.029-.078.126-.923.565-4.364.254-.49.09.138.126.74.246 3.178.925 11.807.327 4.772.366 5.252.151.621.03-.023.096-.346.215-1.899.298-3.639.295-3.446.017.013.067.311.712 6.581.126.759.037-.068.092-.758.337-5.566.317-2.937.582-3.97.347-5.431.356-4.915.198-.752h.003l.093.133.163.722.31 2.708.326 3.177.057-.222.105-.64.06.192.163 1.645.353 2.837.182.333.015-.006.11-.198.181-.892.212-2.298.48-6.304.04.057.097.585.412 5.072.383 4.266.314 1.131.259.93.221 2.003.354 5.506.434 5.91.104.217.045-.046.132-.466.2-1.627.484-4.926.06.26.095.535.058-.175.159-1.52.36-2.829.18-.303.016.007.114.203.185.879.211 2.224.538 5.924.053-.102.11-.956.322-2.996.034.06.08.682.096.652.053-.161.13-1.452.485-5.342.193-.64.014.008.076.208.135 1.197.462 7.285.258 2.155.287.692.222.156.143-.191.212-.73.234-1.67.216-3.105.277-3.718.348-2.675.557-3.342.25-3.582.312-4.057.033-.049.049.156.145.637.057-.083.136-.681.313-2.131.073.184.128 1.154.762 9.575.052.007.042-.066.141-.587.227-2.081.43-4.404.071.375.096.568.056-.152.145-1.347.391-3.257.276-.672.238-.574.112-.183.046.055.128.531.194 1.824.472 5.554.022-.035.075-.606.088-.404.052.116.131 1.037.639 5.602.167.055.413-.305.153-.436.175-1.338.35-5.013.373-5.715.327-2.517.465-2.709.255-3.68.421-5.575.036-.017.047.092.118.769.434 5.674.282 3.06.007-.002.058-.17.113-1.202.35-3.463.488-4.035.02.018.073.34.164 2.131.567 7.212.196.296.317.14.146-.284.196-.957.215-2.31.564-6.5.027.009.031.084.11.906.318 2.617.024-.026.07-.424.112-.784.057.196.144 1.674.536 6.105.106.199.047-.051.567-1.306.216-1.441.362-3.194.067.292.1.623.057-.201.158-1.75.481-4.843.162-.411.03.026.09.352.167 1.788.737 9.908.066-.097.135-.694.275-2.975.358-3.931.065.308.144 1.043.057-.14.13-1.138.298-2.743.04.062.099.662.473 6.264.29 2.312.226.464.116-.106.17-.55.216-1.504.287-3.818.234-2.7.274-1.067.195-.19.01.006.121.21.188.883.35 2.027.072-.061.051.133.124 1.175.55 5.774.173.145.007-.004.14-.2.18-.721.277-2.236.274-2.144.041.092.072.228.054-.176.153-1.578.545-5.55.31-1.016.176-.608.237-1.81.509-6.2.105.645.066.214.056-.135.146-1.151 1.271-12.856.076.37.127 1.036.062-.21.148-1.735.359-3.539.228-.569.111.095.166.54.21 1.504.307 4.122.222 2.207.218.44.262.17.168-.177.199-.549.165-1.336.527-4.794.388-1.74.106-.017.029.03.151.386.213 1.219.345 3.836.264 2.72h.006l.063-.152.287-.743.014.005.093.18.148.584.067-.21.143-1.488.546-6.58.026.02.092.32.561 3.538.241 3.265.165 1.068.019-.017.083-.375.243-.96.016.008.077.204.152.858.075-.294.168-2.051.608-7.669.688-4.7.675-7.21.294-.196.137.2.214.83.478 2.91.385 3.853.376.46.373.196.025-.05.11-.616.15-2.232.357-4.882.337-2.819.455-3.364.248-3.84.308-3.558.02.008.028.091.162.757.072-.136.152-.918.258-1.733.052.104.115.86.52 7.557.532 6.107.363 5.92.337 4.039.041.032.052-.094.117-.714.377-4.642.298-3.48.03.048.08.622.277 2.168.218.862.15 2.06.12.74.04-.077.098-.861.263-2.535.043.096.085.909.111.822.045-.112.11-1.104.61-7.06.113-.09.035.025.182.332.307 1.04.226 1.67.613 5.393.631 4.797.244.438.006-.002.089-.164.13-.85.253-3.53.543-6.743.147-.068.325.2.183.644.691 3.999.422 4.764.107.14.042-.04.14-.409.295-1.64.222-2.658.358-3.801.283-1.68.039.045.096.482.202 2.487.716 8.97.251.429.381.238.111-.242.167-1.07.64-4.548.016.012.067.278.072.281.056-.175.139-1.513.63-7.39.601-3.97.327-4.826.318-3.539.33-1.786.49-2.278.28-3.227.475-6.398.039.074.124.926.197.526.105-.115.059-.044.044.085.109.762.446 3.728.162.495.228 1.349.093-.358.176-2.153.648-8.196.296-.765.46-.659.161-.057.14-.579.211-1.904.472-5.673.039.106.14.86.08-.25.186-1.765.6-5.448.58-3.399.325-3.022.05.156.13.915.073-.31.21-2.531.4-3.492.221-.61h.001l.08.133.129.793.264 3.506.58 7.692.166.239.012-.005.154-.19.26-.732.225-1.389 1.214-9.777.214-.134.162.16.178.539.198 1.421.962 8.765.307 1.044.25.264.105-.168.141-.763.244-2.92.64-8.036.027.016.091.277.215 1.617.295 3.235.35 4.37.029-.035.08-.486.843-7.611.008.003.056.191.127 1.447.586 7.46.111.321.044-.069.098-.65.224-3.403.398-5.005.228-1.455h.002l.059.125.115.95.471 7.186.219 1.811.046.04.052-.09.76-1.789.082-.271.146-1.51.402-4.21.174-.234.629-1.601.072.183.14 1.148.691 8.823.089-.224.139-1.24.712-8.525.078.223.125 1.349.55 6.13.351 1.753.134.219.039-.037.107-.384.174-1.615.407-4.946.072.082.048-.042.019-.049.163-.86.394-1.781.39-.908.06.107.135.804.185 2.595.439 5.284.03-.05.078-.647.215-1.396.06.041.02.04.091.144.049-.101.108-.832.234-2.508.06.156.202.912.065-.14.102-.932.103-.68.048.133.117 1.235.595 6.993.06.067.05-.088.2-.978.552-2.035.178-.186.146-1.623.416-4.66.075.093.271.321.21-.027.078.006.026.055.11.648.147 2.326.295 3.369.285 1.584.177.228.019-.01.114-.22.188-.964.358-2.347.07.142.025.017.043-.118.122-1.16.612-6.483.436-1.367.224-.211.107-.188.172-.916.205-2.332.417-4.96.026.032.016.069.147.896.08-.259.186-1.754.475-4.115.09-.048.042.039.176.407.288 1.233.233 2.07.379 3.191.1.56.334 3.833.305 1.793.348.876.09-.008.025-.04.114-.475.214-2.121.412-4.207.041.092.113 1.054.043.114.056-.19.144-1.647.436-4.574.233-.906.076.091.114.66.235 3.088.973 12.717 1.074 12.499.293 3.385.376 4.967.021.015.041-.132.142-.723.067.141.154 1.044.366 2.823.05-.074.12-.667.229-2.88.416-4.949.075.34.253 1.813.044-.048.125-.263.057.137.11.984.206 2.16.04-.07.13-.9.11-.386.046.079.09.701.126 1.014.05-.147.122-1.35.533-6.327.127-.346.04.055.097.548.21 2.89.488 6.709.016-.012.072-.287.135-1.653.548-5.839.374-1.663.073-.05.045.061.117.52.186 2.043.373 4.564.028-.034.082-.118.052.095.174.87.659 3.25.08.117.052-.066.138-.57.198-1.83.461-5.071.031.066.13.756.083-.316.256-2.553.31-1.852.548-1.36.078.1.151.715.202 2.082.433 4.844.02-.025.07-.507.076-.331.056.144.146 1.264.437 3.512.393 2.541.38 4.729.275 3.009.028-.044.072-.617.128-1.037.046.108.111 1.052.347 3.784.044-.079.101-.764.694-7.298.328-1.055.075.036.019.035.123.55.186 2.025.357 3.803.093.173.188 1.202.336 1.62.114.05.03-.029.148-.351.21-1.16.311-3.407.282-3.104.137-.021.2-.083.224-.31.079-.088.046.082.113.71.202 2.969.265 2.722.28.462.671 2.703.057-.09.132-.732.186-2.426.436-5.156.037.086.095.997.133.617.032-.033.093-.431.15-.767.054.136.102 1.053.24 2.31.088-.075.062-.015.04.064.114.565.185 1.545.076-.299.16-2.122.516-6.339.09-.158.052.057.54 1.182.25 1.747.242 1.518.034-.061.095-.366.06.218.158 1.8.552 6.272.573 4.335.228 3.736.485 6.447.377 2.494.289 2.425.319 3.008.044-.122.14-1.018.083.39.313 3.696.373 2.47.162.259.026-.017.099-.26.157-1.19.246-3.807.302-4.213.077-.224.053.125.377 1.364.018-.006.106.043.01.03.11.69.556 4.36.188.884.135.643.049-.096.113-.857.24-3.9.297-4.101.188-.68.011.004.088.176.177 1.01.33 3.005.396 5.078.061-.177.109-1.281.252-2.063.323-2.604.168-1.43.03.046.084.598.241 3.967.36 4.357.738 6.017.622 8.201.084-.23.241-1.943.323-3.068.42-3.956.062.172.12 1.293.746 9.507.378 3.37.286 4.633.342 4.132.037.04.05-.122.14-1.177.299-1.36.18-1.224.288-3.172.092.323.198.722.032-.028.086-.35.146-.978.068.243.153 1.816.708 8.822.422 4.534 1.435 18.083.01-.007.053-.25.164-1.44.079.308.173 2.18.222 2.018.024-.026.08-.431.402-4.602.47-3.589.068-.134.053.1.112.825.272 4.147.338 5.036.29 1.83.902 3.284.186 2.738.403 5.909.126.536.04-.053.099-.556.465-5.264.323-3.247.244-.673.101.086.15.55.27 2.048.186 1 .038-.055.052-.082.047.131.127 1.236.587 6.237.437 1.455.46 1.325.203 2.3.422 5.319.02.01.038-.126.166-1.061.081.235.166 1.511.212 1.587.034-.047.095-.568.34-4.416.417-4.044.22-.433.108.125.166.628.204 1.765.642 7.22.052-.111.11-.975.375-4.415.064.247.169 1.53.083-.366.188-2.546.242-2.277.017.013.071.298.13 1.66.45 5.063.331 1.782.194.446.029-.022.099-.306.164-1.387.429-5.199.108.044.105-.41.556-2.429.314-.655.072.16.146 1.016.276 4.024.33 3.781.04-.085.09-.866.216-1.444.268-.828.27-2.895.109.554.21 1.293.039-.058.084-.613.122-.963.052.16.127 1.425.531 6.25.11.264.045-.066.105-.639.463-4.37.085.38.109.762.058-.2.149-1.73.519-5.79.112-.229.044.056.156.619 1.123 5.191.509 5.748.172.202.011-.005.135-.196.182-.731.278-2.238.292-2.478.046.13.086.393.06-.202.167-1.762.5-4.791.167-.388.03.025.099.34.772 4.092.067-.133.054-.097.05.134.124 1.206.563 6.094.084-.093.177-.715.302-2.02.716-7.182.074.2.13 1.308.752 9.013.462 1.007.35.573.17 1.113.307 3.89.332 4.071.033-.069.08-.812.14-1.073.034.055.094.674.206 1.672.052-.14.095-1.108.197-1.668h.001l.058.118.132.38.055-.11.103-.809.154-1.417.05.145.117 1.314.473 5.658.228.565.105-.1.16-.569.201-1.63.64-7.217.069.196.138 1.476.297 2.99.027-.04.072-.553.118-.945.052.159.128 1.411.397 4.159.226.553.1-.117.161-.642.208-1.854.438-5.757.09.429.423 3.116.163 1.203.2 1.993.058-.174.122-1.427.347-4.444.04.089.088.904.215 1.773.045-.004.044-.065.059-.038.044.08.107.684.202 2.053.074-.309.16-2.236.247-2.712.024.034.074.523.242 2.116.036-.04.13-.273.057.134.11.93.167 1.634.045-.117.108-1.122.307-3.649.045.113.09 1.018.19 1.462h.003l.06-.133.126-.38.056.12.103.887.165 1.622.046-.117.109-1.129.281-3.203.043.103.087.946.177 1.431.013-.008.068-.243.145-.626.054.125.1.96.155 1.465.038-.081.098-.898.263-2.767.048.13.09 1.091.148 1.133.026-.03.081-.464.17-1.052.05.123.094.99.15 1.364.034-.058.091-.728.225-2.009.048.126.092 1.072.137 1.088.032-.055.091-.689.208-1.745.049.121.091 1.043.154 1.302.026-.035.083-.519.184-1.259.049.117.092.99.14 1.217.036-.07.095-.82.254-2.583.052.146.094 1.177.16 1.201.017-.014.073-.315.15-.72.053.12.097.953.148 1.366.039-.083.099-.922.288-3.248.052.14.093 1.173.176 1.288.008-.002.063-.171.13-.438.055.118.1.885.161 1.556.045-.11.107-1.096.3-3.528.046.115.09 1.008.196 1.538.06-.106.118-.297.054.11.104.832.17 1.698.052-.149.119-1.34.296-3.52.038.078.086.833.219 1.799.066-.109.094-.176.05.096.105.76.182 1.836.061-.208.134-1.679.286-3.374.03.048.078.62.255 2.132.01-.004.14-.116.045.13.115.942.17 1.669.049-.13.112-1.22.353-4.487.047.112.092.98.227 2.005.29 1.205.208 2.039.074-.295.15-2.09.542-7.526.48-5.945.71-8.086.673-3.864.241-3.634.274-2.887.01.006.063.259.065.164.057-.115.161-1.022.768-5.078.272-.878.262-.856.218-1.637.264-4.046.3-3.537.006.002.055.16.107 1.16.29 2.85.519 4.26.053-.126.113-1.059.702-8.351.02.008.204.3.258.456.22 1.059.313 1.638.046-.061.043-.045.044.117.119 1.1.574 6.013.102.036.034-.035.142-.384.243-1.436.262-2.913.218-2.08.032.071.087.9.087.42.051-.129.125-1.153.424-4.233.024.017.088.31.149 1.427.562 6.769.029-.049.076-.655.212-1.44h.001l.07.12.111.267.054-.12.106-.93.21-2.18.041.084.162 1.1.075.18.052-.105.094-.834.116-.883.047.132.116 1.244.542 6.358.141.411.036-.04.092-.456.179-2.319.573-7.599.066-.128.052.11.143 1.045.298 1.574.043-.008.032-.07.138-.616.074.295.167 2.067.523 6.524.266.721.361.35.108-.15.134-.68.211-2.512.671-8.521.028-.001.037.088.128.92.306 1.707.043-.021.026-.064.143-.686.076.322.175 2.222.526 6.611.368 1.456.395 1.76.254 2.436.778 9.555.165.057.277-.249.2-.433.186-1.071.251-3.052.426-5.644.01.006.056.224.208.841.024-.013.1-.24.18-.686.063.169.117 1.162.349 4.031.456 2.416.086.184.05-.08.114-.69.211-2.936.348-4.726.046-.07.052.13.298.882.006-.002.112-.152.098-.148.047.093.112.81.6 5.6.349 1.207.052-.082.116-.67.198-2.698.32-4.043.026-.016.047.113.111.24.052-.058.157-.54.41-2.18.106.325.15 1.493.561 7.133.047-.104.095-.97.223-1.59.27-1.195.25-2.672.092.43.277 2.33.066-.213.168-1.47.09.463.762 6.384.106-.075.148-.509.258-1.864.939-6.975.134.073.187.436.236 1.157.264 2.666.302 3.273.22.137.244.408.138.3.051-.099.118-.803.21-3.249.261-2.728.027-.002.045.086.08.086.05-.062.177-.588.474-2.22.106.31.156 1.442.546 6.865.031-.054.08-.699.204-1.309.07.1.116.272.053-.123.108-.943.219-2.283.04.073.217.967.088-.27.184-1.538.093.483.28 3.903.431 3.97.063-.098.13-.86.413-2.541.045-.023.043.088.116.446.063-.22.148-1.675.551-6.592.205-.292.184.1.218.406.202.93.22 2.265.328 2.86.138.96.578 4.548.319.68.108-.062.003-.006.117-.484.182-1.914 1.82-23.556.04.03.023.064.107.789.888 8.387.026.006.04-.1.105-.926.754-8.723.022.016.074.3.152 1.802.617 8.007.128.428.038-.052.095-.56.21-3.037.509-6.41.063-.085.055.078.895 2.31.136 1.254.448 4.439.187.286.557 1.077.042-.07.112-.655.156-2.368.576-7.872.227-.92.196-.06.393.148.136.467.178 1.603.456 7.043.244 2.655.286 1.107.279.419.165-.08.395-.59.163-1.094.188-2.874.444-5.367h.002l.05.13.11 1.133.24 1.531.245 1.395.261 2.805.09-.401.276-2.142.063.176.168 1.386.093-.495.469-5.812.248-1.556.044-.014.043.083.108.703.234 3.484.47 6.131.114.393.044-.075.101-.738.403-4.304.076.349.135 1.129.066-.248.158-1.967.344-3.397.232-.628.096.108.155.634.245 2.081.245 1.95.037-.088.108-.57.067.263.192 2.181.475 4.5.142.301.036-.038.104-.424.68-3.849.04.055.097.26.055-.17.134-1.401.543-6.145.069-.02.042.055.142.514.316 2.085.234 3.338.442 5.878.192.465.133-.114.303-.63.226-.969.22-2.097.389-4.628.05.076.037.027.047-.103.15-1.004.385-2.242.125-.097.033.026.138.317.206 1.118.323 3.472.32 3.335.013-.005.393-.193.02.032.186.415.068-.194.139-1.288.444-5.541.077.163.104.128.044-.036.165-.387.33-1.35.097.32.14 1.548.574 8.336.203.873.09-.119.173-.713.244-2.078.396-3.682.058.215.068.264.056-.177.16-1.594.49-4.473.198-.477.02.012.084.234.145 1.24.325 5.2.324 3.922h.002l.052-.128.103-.989.347-3.664.507-3.979.006.002.058.16.123 1.191.871 10.322.4 2.993.487 5.978.12-.524.025-.016.047.114.147 1.083.41 2.768.55 1.565.021-.015.101-.276.194-1.287.357-4.553.182-1.51.036.09.125.719.076-.266.211-2.083.332-2.256.615-1.855.087.11.177.719.229 1.852.441 4.438.044-.112.067-.21.055.166.159 1.51.501 4.458.21.497.016-.008.082-.206.148-1.168.493-5.609.087.487.123.997.055-.172.133-1.486.398-4.112.252-.697.221-.052.247.074.141.844.176 2.492.447 5.777.027.02.045-.12.104-1.082.224-1.392.24-1.037.278-2.967.11.572.233 1.605.04-.065.083-.655.113-.86.051.152.125 1.385.533 6.202.116.282.044-.063.103-.616.278-3.565.204-1.635.025.037.071.545.11.829.052-.164.133-1.467.387-3.955.245-.714.097.094.15.578.301 2.28.226.89.093.583.245 3.423.272 2.214.18.274.01-.004.116-.177.187-.797.263-2.18.334-3.641.065.29.145 1.138.063-.188.142-1.46.341-3.356.02.015.081.307.137 1.534.673 8.597.045.04.052-.093.121-.729.398-4.788.284-3.275.027.04.078.574.278 2.127.191.542.135 1.578.159 1.384.023-.029.076-.482.284-2.642.067.236.172 1.57.09-.449.217-3.173.385-4.128.437-4.43.36-5.993.349-3.518.054-.033.049.072.124.586.362 3.407.35 4.187.067-.281.22-1.76.07.161.162.715.066-.192.106-1.253.177-1.622.015.011.07.296.173.838.05-.095.094-.786.13-1.085.047.13.114 1.243.478 5.49.266 1.246.076-.095.117-.679.24-3.1.615-7.906.112-.099.037.028.152.32.22 1.027.321 2.875.214 1.446.034-.048.05-.075.046.127.13 1.221.6 6.04.756 4.44.53 7.064.06-.195.435-2.123.098-.448.131-1.77.18-1.513.006.002.056.174.211.93.06-.109.099-.784.106-.703.05.14.12 1.272.637 7.5.3.59.5 1.55.231 1.581.235 3.285.305 3.802.023.018.044-.132.105-.364.057.103.157.88.712 4.501.025-.01.152-.22.334-.938.234-1.392.223-2.884.288-2.852h.002l.116-.086.153-1.128.41-2.677.12-.128.038.031.125.34.214 1.346.4 3.748.089-.53.072-.348.056.177.153 1.57.383 3.365.24.643.114-.08.153-.484.21-1.537.931-7.946.152-.182.025.015.125.252.217 1.036.222 2.201 1.279 16.797.062.201.053-.179.168-1.448.09.417.209 2.85.302 2.866.043-.03.024-.059.122-.723.33-4.066.322-3.802.047.121.097 1.093.195 1.158.06-.012.037-.048.05-.013.039.078.108.717.23 2.489.08-.313.244-1.71.064.185.182 1.57.099-.56.78-7.183.064-.02.041.062.114.542.206 2.343.586 7.595.048-.07.11-.656.746-7.043.161-1.135.02.02.072.367.239 3 .133.754.04-.087.086-.898.092-.591.051.147.123 1.35.408 4.315.224.555.1-.116.159-.639.21-1.866.372-4.584.076.36.2 1.695.061-.14.198-1.077.082.318.125 1.844.128.756.036-.062.122-.813.101-.358.049.095.092.795.133 1.162.047-.124.11-1.184.473-5.394.22-.5.1.13.161.676.216 1.978.33 3.785.058-.227.174-1.457.08.292.183 2.083.127.768.043-.096.095-.892.28-2.758.293-1.609.185-1.561.055.153.119 1.26.628 7.657.037.012.044-.088.495-1.886.226-.462.025.012.062-.009.026-.066.107-.773.27-4.104.211-1.33h.005l.286-.034.262-.522.145-.354.052.097.117.807.274 4.062 1.666 20.25.1-.108.179-.644.243-1.8.411-3.623.067.232.047.12.054-.17.153-1.535.534-5.22.226-.553.006.001.118.164.13.066.029-.024.2-.37.398-1.19.223-1.592.233-3.436.295-3.451.018-.003.036.108.107.364.06-.11.16-.913.726-4.493.015.005.146.18.342.842.224 1.184.223 2.576.345 4.053.005-.002.112-.153.054.176.226 1.631.308 1.443.17.093.005-.003.196-.248.162-.497.17-1.581.807-10.083.385-4.258.45-5.997.007.004.053.2.235 1.22.044-.041.122-.445.079-.19.051.119.11.961.334 3.316.25.915.213 1.406.08-.278.157-1.806.789-9.97.374-3.359.595-8.143.1.35.15 1.777.818 8.753.474 2.611.335 4.34.51 7.12.09.15.049-.059.121-.52.334-2.95.393-4.713.091.535.197 1.509.029-.03.095-.44.11-.415.05.117.1.954.198 1.988.03-.043.104-.628.124-.485.044.078.092.7.137 1.19.051-.154.122-1.386.442-5.104.297-1.44.078.094.118.654.23 2.896.592 7.529.051-.006.035-.063.129-.606.39-3.514.372-4.692.065.223.8 6.048.096-.493.316-3.306.082.4.165 1.543.069-.255.151-1.913.229-2.261.026.035.08.532.454 3.839.19 1.635.15 1.156.035-.057.09-.684.712-8.366.086.266.187 1.808.283 1.906h.004l.055-.148.132-.816.074.315.186 2.378.54 6.39.523 4.286.54 7.27.084-.362.322-1.905.152-.354.136-1.322.223-2.317.024.028.097.484.148.486.037-.04.088-.437.144-1.07.065.23.148 1.775.604 7.354.598 3.848.474 5.697.091-.436.049-.119.057.15.162 1.32.372 2.511.23.364.324.077.015-.039.126-.694.168-2.266.442-6.317.083-.28.053.113.103.917.355 3.221.477 4.342.068-.218.131-1.562.514-6.518.248-.716.1.084.15.556.637 4.034.518 4.942.089-.04.014-.022.192-.55.26-1.406.346-3.673.282-2.997.062.165.221 1.813.129.397.04-.057.087-.583.087-.471.055.168.134 1.468.71 8.568.42 4.068.648 8.386.074-.14.129-.884.495-6.131.273-2.82.054.116.106.927.534 5.905.439 2.654.005-.001.067-.148.128-.99.259-4.102.307-4.488.193-.798.009.002.082.16.158.943.375 3.623.37 4.693.041-.08.093-.788.317-2.953.345-3.19.134-.835.034.058.089.686.796 8.14.138.13.03-.023.118-.29.169-1.133 1.004-8.734.267-.708.196-.057.133.232.164.827.208 2.38.35 4.166.01-.006.095-.128.052.131.189 1.19.348 1.68.31.421.127.139.044-.071.12-.64.163-2.176.45-6.39.078-.254.053.119.104.964.318 2.776.495 4.495.09-.407.176-2.566.527-7.467.165-.412.016.006.123.193.254.905.244 1.71.505 3.891.163 1.682.425 4.11.344 1.06.207.21.014-.009.098-.222.145-1.034.277-4.05.485-6.225.077-.192.052.11.124.993.326 2.26.003-.001.055-.135.14-.844.076.336.19 2.464.544 6.577.5 4.553.67 8.629.091-.19.142-1.034.49-6.098.176-1.52.03.047.078.62.258 2.002.212.486.13 1.579.153 1.292.025-.034.08-.53.274-2.553.061.198.18 1.64.097-.524.255-3.794.499-5.66.39-5.37.244-2.707.025.036.07.548.177 1.517.04-.068.108-.752.13-.697.046.107.093.93.182 1.742.027-.037.089-.544.153-.82.045.087.09.778.139 1.257.046-.123.11-1.17.77-9.856.503-7.59.241-2.325.252-.668.205-.144.007.004.127.224.182.872.226 2.34.274 2.849.035-.085.092-.984.08-.39.053.144.126 1.264.56 6.022.136.138.026-.013.187-.266.322-.836.215-1.326.221-2.94.302-3.44.027.022.027.075.057.1.054-.116.164-1.062.371-2.005.229-.255.269-.045.016.048.132.812.168 2.542.494 6.544.058.096.054-.102.113-.787.629-8.134.35-2.879.384-3.255.261-4.227.32-3.723h.021l.035.1.253 1.23.084-.14.168-.549.065.185.115 1.218.28 3.065.52 2.578.098-.38.18-2.2.669-8.454.297-.726.484-.67.124-.089.139-.593.207-1.949.47-5.75.028.051.094.802.07.23.056-.123.133-1.028.416-3.662.041.048.112.513.176 1.995.486 5.706.054-.185.214-1.606.088.254.18.971.067-.21.107-1.36.198-1.75.035.017.03.07.116.222.052-.081.106-.633.163-1.41.063.217.137 1.686.525 6.511.09.197.05-.083.125-.777.4-2.283.058-.044.046.083.11.373.061-.194.14-1.511.547-6.364.07-.023.042.058.14.522.326 2.22.238 3.501.34 4.122.032.005.042-.088.112-.76.478-6.362.35-4.115.092-.138.047.049.14.463.206 1.518.488 4.75.07-.314.068-.28.057.176.16 1.574.43 3.686.256.725.095-.052.008-.017.12-.51.198-2.044.606-8.003.083.241.6 4.177.33 3.577.11-.49.24-1.22.025.018.074.285.138.92.069-.257.158-1.929.653-8.064.445-4.429.71-8.824.056.053.13.456.217 1.725.477 4.828.092-.584.082-.432.055.15.14 1.327.407 3.52.87 3.42.277.636.218 1.235.229 2.814.502 6.03.06.115.052-.122.114-1.033.365-4.19.058.19.169 1.5.091-.449.222-3.143.408-4.453.201-.434.217.05.348.246.143.59.191 1.943.977 11.64.42 3.083.481 5.844.133-.377.067.24.256 2.11.296 1.43.164.099.01-.006.181-.245.187-.59.176-1.647.801-10.152.386-4.437.43-5.95.025-.017.044.122.303 1.554.086-.113.075-.091.046.092.109.804.323 3.213.053-.028.102.048.008.015.127.487.19 1.28.079-.291.16-1.951.767-9.752.335-4.02.563-6.583.102.067.671.927.129.573.184 2.203.303 2.92.668 1.903.034-.014.26-.267.122-.642.158-2.146.313-4.44.356-3.229.503-3.726.258-4.117.27-2.84.015.012.064.347.104.39.05-.07.13-.673.415-3.043.09.22.144 1.17.579 7.16.072-.311.247-1.784.052.073.13.327.058-.144.109-1.026.206-2.112.03.046.109.659.126.472.043-.067.09-.636.134-1.119.054.164.125 1.434.53 6.362.114.296.044-.065.101-.62.295-3.798.175-1.253.03.055.078.677.098.68.051-.156.13-1.416.395-4.05.25-.751.101.084.149.543.29 2.122.596 5.528.235 1.231.102.005.026-.025.191-.397.254-1.072.268-2.32.366-3.922.08.087.175.053.147-.242.173-.554.068.185.138 1.276.483 6.142.083-.235.207-.419.126.117.198.459.068-.191.127-1.211.468-5.673.276-1.125.12-.07.033.029.13.34.228 1.372.3 1.403.073.277.156 1.799.387 4.208.117.168.04-.032.141-.369.28-1.406.222-2.384.497-5.316.037-.036.049.117.109.995.77 8.773.188.145.18-.205.223-.551.173-1.392.344-5.437.366-3.992.07-.06.05.06.145.522.22 1.765.459 4.488.075-.385.075-.364.057.17.155 1.513.374 3.051.184.368.017-.008.104-.199.182-.949.32-3.086.117-.597.045.132.094.463.06-.213.17-1.838.502-4.921.156-.355.033.03.106.37.923 4.545.065-.15.05-.102.05.149.13 1.333.575 6.4.268.509.278.13.12-.194.148-.779.24-2.785.638-8.17.045.05.106.495.416 3.81.573 6.544.632 3.419.432 6.38.27 3.626.376 2.414.444 2.765.237 3.205.293 3.106.007-.004.065-.213.04-.064.054.13.163 1.197.366 2.232.156.153.02-.012.139-.241.216-.88.225-2.014.578-6.19.24-.478.107.108.156.574.213 1.755.331 3.456.06-.242.136-1.07.069.25.165 1.911.385 3.727.497 3.666.409 6.223.314 4.402 1.168 13.808.067-.086.427-.618.362-.763.172-2.02.322-3.335.237-.774.358-1.073.35-.332.026.038.1.466.155 1.883.462 7.036.249 1.785.078.03.042-.046.162-.44.239-1.317.96-8.418.306-2.577.427-1.745.287-1.088.215-2.187.48-6.233.014.012.058.307.194 1.234.042-.051.109-.537.128-.583.05.117.102.964.283 2.782.23.582.157 1.454.088.371.05-.126.116-1.123.782-9.208.428-2.658.237-3.075.313-3.296.015.018.114.413.074-.26.256-2.251.294-1.507.12-.08.033.029.14.331.203 1.124.319 3.465.318 3.398.158.002.284.164.199.19.047-.107.122-.848.24-3.605.228-1.706.117-.134.23-1.027.374-1.193.254-.69.068.145.142.97.275 3.968.336 3.884.042-.097.093-.92.214-1.42.266-.867.267-2.867.106.537.219 1.416.04-.068.086-.668.117-.9.05.151.125 1.39.529 6.196.122.32.042-.056.097-.554.23-3.028.28-3.027.024.035.069.536.133 1.129.05-.137.12-1.232.405-4.493.023.02.086.351.148 1.735.696 8.387.02-.012.08-.266.146-1.355.623-7.454.068.228.17 1.955.286 1.382.17 1.422.192 1.915.043-.096.102-.964.3-3.352.049.133.094 1.172.109.687.043-.097.106-.98.235-2.264.043.103.092.954.22 1.934.044-.016.036-.06.067-.056.046.08.109.663.19 1.833.071-.29.15-2.075.4-5.01.258-.882.156-.01.222.336.166.57.182 1.73.746 9.48.11.065.034-.025.187-.332.29-.975.222-1.636.903-8.501.316-1.648.293-.62.09.105.121.635.229 2.692.416 5.497.056-.189.22-1.953.106.456.164.98.053-.138.098-1.074.167-1.533.023.026.079.454.18 1.127.05-.106.09-.891.13-1.116.043.101.104 1.04.6 7.018.079-.115.154-.74.25-2.513.375-3.832.06.265.103.61.058-.171.155-1.471.368-2.959.226-.44.18.063.219.272.144.937.173 2.704.5 6.655.087.183.05-.067.12-.587.312-3.192.372-4.41.078.388.202 1.564.048-.079.199-.928.088.367.13 1.95.137.818.032-.046.202-.776.09.304.194 1.704.095-.513.446-5.744.303-2.073.065.095.108.744.267 3.985.489 5.605.034-.01.035-.074.642-1.55.12-.083.111-.782.26-3.915.217-1.372.162-.118.382-1.063.255-.845.07.159.136 1.053.404 6.1.247 2.327.006-.002.059-.159.113-1.09.471-4.865.42-3.262.045.075.1.721.317 4.691.384 4.895.795 6.74.326 3.565.007-.003.054-.226.072-.246.057.144.163 1.287.37 2.404.213.287.283-.085.096-.274.16-1.323.44-6.933.255-2.17.046-.003.04.072.132.644.312 3.168.348 3.931.068-.318.161-1.24.06.144.13 1.154.186 1.411.04-.082.093-.792.338-3.285.274-1.711.17-1.3.045.1.106.932.786 8.763.583.74.218.149.153.571.296.949.389.478.242.952.248 1.99.207 3.282.33 4.17.36 2.609.387 2.895.251 3.872.265 2.73.017-.019.137-.527.09.285.268 2.05.976 6.788.413 2.938.07-.258.076-.331.057.19.148 1.652.603 6.907.487 3.946.226 3.779.465 5.74.098.158.047-.045.128-.419.21-1.562.494-4.884.087.522.075.355.056-.163.15-1.446.368-3.034.195-.352.008.003.113.168.183.768.22 2.035.512 5.638.077-.137.247-.351.132.109.167.406.066-.189.138-1.296.453-5.663.072.16.148.224.029-.015.149-.257.275-.951.09.292.132 1.484.477 6.754.373 3.048.367 3.39.5 6.729.098-.534.122-.457.04.04.11.451.262 1.668.078-.252.122-1.43.34-4.35.296-2.229.228-.455.103.13.164.676.658 4.446.377 4.018.102.127.044-.039.173-.43.28-1.272.28-2.602.357-3.902.096.317.247.758.006-.002.083-.153.163-.768.08.305.165 1.994.547 6.792.128.139.033-.022.135-.283.204-1.032.312-2.892.23-1.94.037.092.112.63.07-.268.205-2.233.399-3.248.24-.627.092.095.123.596.215 2.432.602 7.822.054-.087.116-.732.751-7.25.167-1.18.019.016.069.331.165 2.244.33 4.232.028-.044.076-.603.221-1.876.024.018.121.39.039.032.049-.104.103-.84.177-1.808.05.14.119 1.273.225 2.196.034-.066.08-.738.152-1.367.04.076.1.83.197 1.65.045-.11.09-.965.172-1.526.021.021.078.394.156.822.05-.108.093-.892.144-1.31.04.095.103 1 .337 4.096.054-.147.099-1.16.221-1.965.309-1.588.191-1.804.058.182.123 1.44.48 5.939.257.793.104-.07.145-.511.307-2.147.439-3.819.285-2.45.168-.164.004.002.175.184.248.647.218 1.197.175 2.376.228 2.648.272.929.33.497.108-.04.01-.019.113-.498.182-2.02.332-3.316.163-.815.43-2.17.098-.012.029.034.147.405.21 1.291.393 4.574.25 2.494.028-.036.086-.511.317-2.17.033.042.081.495.096.576.056-.174.135-1.502.665-7.946.452-3.767.542-7.307.101.559.234 1.385.072-.008.036-.042.055-.02.038.078.108.727.281 3.018.088-.227.125-.274.045.052.1.471.157 1.17.068-.24.15-1.803.634-7.882.517-4.08.476-6.187.072.354.124.66.049-.08.122-.74.347-2.836.071.172.127 1.097.744 9.232.023-.014.087-.284.15-1.369.594-6.962.072.301.272 2.033.062-.083.08-.11.048.093.107.783.217 2.32.065-.216.252-1.766.081.3.168 1.498.081-.387.201-2.854.324-3.077.3-1.14.09-.004.029.039.124.437.183 1.626.42 5.182.09-.122.062.116.176 1.025.375 1.762.418.958.054-.094.132-.743.178-2.378.451-5.479.013.01.058.293.234 1.615.047-.059.16-.483.07.217.111 1.309.203 1.9.003-.001.056-.132.159-.493.054.09.1.673.14 1.12.054-.163.125-1.405.577-6.992.073-.1.05.077.55 1.649.407 2.064.103-.08.073.378.18 2.41.336 3.97.151.32.027-.017.114-.272.278-1.408.224-2.267.47-5.216.293-.922.093.021.02.032.128.459.182 1.63.435 4.1.21 1.687.368 2.337.216.28.134-.124.17-.53.214-1.522.98-8.277.129-.11.032.025.134.307.228 1.178.22 2.39.732 9.557.68 5.242.081-.363.08-.41.056.19.148 1.657.578 6.486.61 3.866.48 6.076.07-.35.116-.63.05.095.128.872.465 3.94.056-.077.132-.642.206-2.287.429-4.785.063.284.143 1.015.06-.15.134-1.195.31-2.844.036.052.1.592.32 4.114.766 8.85.323 4.456.333 4.937.092.344.05-.116.135-1.158.243-.965.163-.597.145-1.733.21-2.028.048.074.007.022.199.585.057-.08.103-.577.126-.803.054.154.126 1.307.913 11.194.402 5.586.272 3.757.413 3.32.372 3.185.455 5.802.084-.385.063-.172.057.125.157 1.1.942 7.177.503 3.603.046-.096.111-.536.066.256.166 2.012.558 6.65.486 4.162.37 5.663.483 4.65.456 3.764.458 5.883.087-.404.066-.185.056.123.156 1.06 1.382 10.836h0l.051-.125.107-.542.064.243.163 1.939.573 6.776.476 4.126.252 4.105.512 6.63.498 6.258.31 3.924.023-.027.071-.469.27-2.173.029.018.097.082.042-.087.11-.74.204-2.12.071.279.164 2.138.177 1.506.032-.059.077-.695.153-1.365.04.084.105.9.199 1.7.044-.101.09-.94.182-1.632.017.013.073.305.142.622.052-.107.095-.847.149-1.385.044.116.108 1.132.406 5.128.044-.088.1-.826.488-5.254.411-2.808.053.097.11.826.288 4.42.335 4.925 1.048 11.2.062-.23.21-1.858.093.346.18 1.105.061-.179.101-1.253.162-1.378.019.017.073.36.175.975.05-.11.093-.872.13-1.126.044.109.105 1.087.61 7.276.401 3.56.302 4.864.35 4.34.052.079.053-.116.119-.96.82-7.116.037.07.101.796.26 1.943.026-.029.072-.426.121-.936.06.204.144 1.716.518 5.978.1.207.047-.067.135-.658.533-2.461.127-.25.044.045.053.041.041-.096.112-.924.498-5.654.074.117.35.594.246.4.144 1.36.43 4.9.301 1.027.172.101.013-.008.133-.245.176-.885.275-2.86.471-3.932.292-1.3.101-.032.033.034.144.391.224 1.344.22 2.86.445 5.722.696 5.599.544 7.385.09-.401.267-1.375.255-.495.132-1.746.206-2.057.048-.034.059.066.091.03.036-.046.123-.436.182-1.16.077.274.158 1.85.734 9.224.442 3.483.764 8.317.103.061.038-.038.13-.39.214-1.461.327-2.743.058.207.085.433.058-.2.162-1.756.514-5.176.154-.348.034.027.113.354.323.852.215.722.23 1.716.316 2.74.05-.15.114-.738.07.274.19 2.267.468 4.546.127.264.04-.047.101-.48.305-3.097.235-1.45.018.016.065.32.098.566.057-.195.146-1.666.616-7.188.492-3.814.54-7.26.104.613.216 1.221.069-.047.015-.032.1-.171.05.104.109.86.27 2.82.05-.075.134-.241.05.067.108.533.16 1.199.067-.227.144-1.699.65-8.086.511-3.898.48-6.149.082.453.098.44.05-.094.13-.865.533-4.316.05.047.131.452.204 1.556.491 5.008.06-.242.081-.386.057.177.164 1.576.38 3.036.2.405.009-.003.104-.163.17-.789.737-5.437.378-4.022.235-.543.17.019.17.288.195.833.286 2.465.857 7.018.112.072.035-.03.146-.351.237-1.223.216-2.372.414-4.595.285-1.59.034.033.092.405.184 2.085.727 8.83.106-.052.005-.008.163-.461.225-1.378.47-4.084.102.382.02.016.045-.132.137-1.312.572-5.602.197-.446.017.008.317.196.043-.063.472-.974.197-.993.25-2.706.494-6.705.069.247.25 1.053.01-.002.092-.155.123-.29.054.12.113.952.391 3.894.312 1.525.135.644.045-.077.107-.743.239-3.642.335-4.891.212-.823.094.092.153.584.296 2.239.386 4.026.083-.503.104-.678.052.133.13 1.211.545 5.337.346 3.674 1.638 21.717.073-.298.283-2.326.085.121.049.028.043-.086.107-.725.203-2.12.07.271.166 2.123.166 1.325.034-.066.08-.749.144-1.271.04.083.102.893.224 2.094.046-.115.092-1.015.193-1.634.006.001.06.153.13.413.055-.11.101-.837.157-1.486.048.135.114 1.26.522 6.555.011-.005.075-.2.135-1.094.619-7.496.07.276.396 2.3.079.217.126 1.146.193 1.984.038-.082.107-.923.202-1.471.033.049.076.576.13 1.124.054-.167.126-1.466.402-4.43.244-.722.097.09.149.573.269 2.111.205 1.238.035-.054.057-.11.049.14.132 1.312.588 6.252.782 4.596.347 5.679.292 2.821.049-.047.015-.043.111-.732.57-7.023.29-2.386.253-.624.231-.042.308.051.163 1.079.221 3.192.365 4.241.042-.11.227-1.54.108.343.161.8.058-.159.106-1.16.232-2.294.139-.01.093-.228.13-.993.133-.982.046.105.108 1.018.717 8.216.584.671.318.143.212.76.135.161.031-.019.178-.3.374-1.084.224-1.475.226-3.16.292-3.222.049.1.067.142.054-.118.167-1.084.381-2.062.463-.951.012.008.083.231.162 1.257.562 7.19.104-.688.193-1.179.006.002.07.152.141.492.06-.157.108-1.111.221-2.174.01.003.07.198.12.292.049-.07.101-.585.155-1.276.062.21.139 1.68.545 6.71.088.151.051-.064.564-1.413.284-2.037.175-.863.037.065.083.255.054-.179.143-1.558.568-6.454.776-4.831.221-3.728.586-7.253.783-6.363.088.481.083.477.056-.189.148-1.65.517-5.525.126-.276.041.05.117.528.633 3.237.084.122.05-.072.054-.07.047.115.117 1.059.517 5.791.043-.044.204-.636.395-1.554.192-2.036.276-3.1.25-.352.228-.65.113-.305.05.09.114.773.207 3.188.28 3.394.04.051.052-.122.154-.333.04.027.141.321.289 1.21.091-.305.134-1.53.484-7.004 1.253-15.044.035.042.092.492.786 7.763.166 1.103.021-.02.073-.367.166-2.31.464-6.102.193-1.028.008.003.062.163.125 1.162.74 9.04.037-.053.093-.59.416-4.319.09.479.118.924.056-.189.14-1.627.39-4.057.302-1.31.074-.001.033.05.117.5.197 2.041.52 6.993.08-.287.268-1.073.12.054.07.039.04-.079.108-.724.55-4.589.218-1.135.11-.428.048.087.111.792.231 3.608.31 4.43.155.552.028-.021.093-.326.4-2.826.673-6.77.074.212.13 1.411.658 8.163.04-.025.028-.064.76-1.895.076-.23.14-1.369.433-4.465.134-.13.435-1.119.206-.614.06.122.13.91.302 4.462.391 4.466.021-.016.08-.3.167-1.8.481-6.17.287-2.05.256-.548.333-.429.138-.234.045.05.13.488.205 1.72.482 5.528.05-.182.112-.636.062.18.164 1.497.384 2.957.559 2.95.895 5.45.008-.004.054-.196.08-.343.056.19.148 1.652.602 6.888.477 3.889.235 3.8.46 6.253.296 1.731.375 1.795.23 2.616.428 5.797.049-.113.098-.992.266-2.494.356-2.987.148-1.078.029.041.084.581.245 3.93.318 3.253.333 1.553.077-.124.127-.776.236-3.158.423-5.806.043-.047.05.111.222 1.377.44 2.493.3 3.26.068-.139.17-.322.036.028.104.314.166.923.074-.255.153-1.75.664-8.113.261-.477.343-.207.111.222.145.923.249 3.376.55 7.25.065.132.052-.112.153-1.114.275-1.309.053.038.018.048.14.617.074-.293.165-2.034.522-6.528.238-.54.29-.12.152.128.141.492.19 1.627.272 4.474.315 4.103.072.172.052-.113.155-1.147.583-4.32.193-1.639.046.065.01.031.218.62.055-.07.103-.513.122-.709.055.15.126 1.266.836 9.886.362 2.634.56 7.495.198 1.392h.005l.056-.15.119-1.142.415-5.433.072.317.202 1.84.078-.267.2-1.303.07.246.113 1.577.13.876.033-.053.098-.7.154-.893.041.083.088.772.14 1.29.046-.12.11-1.142.429-5.31.037.053.097.599.41 5.176.346 3.595.248.687.131-.047.176-.414.23-1.162.22-2.488.404-5.71.35-2.506.399-2.867.239-3.563.302-3.376.042.112.116.473.062-.13.163-1.053.777-5.382.412-.961.226-1.451.362-4.407.309-3.508.208-.246.228-.052.165.261.3 1.023.173 1.498.454 4.208.426 1.548.14-.034.182-.38.218-.984.19-2.143.313-4.02.292-1.382.172-.185.02.012.118.236.19.984.353 2.35.07-.155.031-.039.048.138.13 1.29.59 6.418.512 1.889.254 1.16.21 2.358.464 6.602.047.09.054-.142.116-1.196.25-1.477.222-1.299.27-2.922.096.447.258 1.813.048-.098.092-.837.092-.576.052.157.127 1.428.542 6.338.096.196.048-.077.124-.731.46-2.718.053-.038.045.085.103.332.058-.18.137-1.455.554-6.368.069-.018.04.055.142.512.317 2.14.235 3.367.34 4.105.032-.017.028-.074.109-.803.869-9.097.185-.222.01.004.13.19.205.766.236 1.838.194 3.175.317 3.575.3 1.557.258.42.298.312.257.65.062-.07.173-.555.27-1.647 1.483-12.075.223-.345.132-.129.164-.671.238-1.961.461-5.243.054.196.085.384.058-.164.163-1.449.361-2.599.163-.233.022.012.122.234.191.94.231 2.446.466 5.148.058-.134.34-1.335.063.088.165.715.083-.344.173-2.178.494-6.253.133-.194.032.021.127.287.213 1.157.295 2.855.252 2.464.04-.108.146-1.062.087.365.23 2.679.376 3.136.345 2.97.4 6.091.325 4.65.493 4.728.477 5.112.093-.591.107-.786.053.158.131 1.41.396 3.968.236.588.134-.064.226-.46.163-.795.182-2.19.417-6.32 1.191-14.525.288-.486.142.04.144.385.204 1.3.364 3.18.071-.33.088-.502.057.194.156 1.704.493 4.996.155.375.033-.031.091-.377.21-2.1.347-2.902.014.01.058.25.114.761.064-.24.163-1.974.529-5.96.224-.5.178-.428.325-1.486.253-2.196.393-4.003.03.023.036.004.034-.089.124-.958.611-5.16.236-.52.011.004.086.183.193 1.137.717 3.736.06-.09.002-.006.063-.134.05.14.126 1.257.564 6.223.103.055.037-.035.14-.375.244-1.433.263-2.874.226-2.216.033.074.09.928.083.392.053-.133.125-1.164.41-4.118.026.02.09.341.15 1.572.564 6.864.03-.045.077-.604.254-1.878.22-.467.129-1.632.156-1.327.022.023.073.426.25 1.935.056-.147.104-1.17.08-.413.052.164.126 1.46.404 4.457.29 1.083.106.014.026-.03.132-.377.177-1.315.783-7.195.324-1.87.267-.447.143.051.132.385.18 1.358.231 3.632.284 3.272.02.006.038-.11.13-.432.057.083.151.693.404 2.594.09-.227.148-1.215.572-7.131.07.287.245 1.786.061-.097.126-.32.056.138.108 1.005.209 2.159.033-.05.123-.734.103-.303.047.082.093.68.13 1.067.052-.156.124-1.392.544-6.55.098-.222.048.079.112.733.439 3.639.046-.093.141-.862.083.397.219 2.93.471 5.457.575 4.502.493 6.589.057-.19.226-1.375.067.112.186.728.075-.257.113-1.464.212-2.127.385-1.48.131-.86.045.096.107.938 1.054 11.969.248 3.25.359 4.895.043.09.05-.169.193-1.129.067.123.14.898.124.59.049-.11.103-.929.36-3.8.464-2.778.09.317.164 1.902.792 9.996.431 3.196.316 5.129.228 2.306.015-.012.066-.306.685-6.24.155-1.184.03.042.082.568.24 3.82.35 3.713.244 1.285h.002l.067-.127.118-.87.312-4.602.408-5.864.723-8.979.287-3.846.329-1.82.73-3.06.346-4.918.37-5.733.249-1.515.165-.075.228.246.24.556.199 1.138.218 2.734.288 3.615h0" fill="none" stroke="#1f77b4" stroke-linecap="square" stroke-width="1.5" id="line2d_12"/><path d="M172.44 609.4V82.167" fill="none" stroke="#000" stroke-linecap="square" stroke-width=".8" id="patch_3"/><path d="M1241.568 609.4V82.167" fill="none" stroke="#000" stroke-linecap="square" stroke-width=".8" id="patch_4"/><path d="M172.44 609.4h1069.128" fill="none" stroke="#000" stroke-linecap="square" stroke-width=".8" id="patch_5"/><path d="M172.44 82.166h1069.128" fill="none" stroke="#000" stroke-linecap="square" stroke-width=".8" id="patch_6"/></g></g><defs><clipPath id="pe0de3f5a7d"><path d="M172.44 82.166h1069.128V609.4H172.44z"/></clipPath></defs></svg>